<svg xmlns="http://www.w3.org/2000/svg" xmlns:xlink="http://www.w3.org/1999/xlink" viewBox="0 0 258.34 81.72"><defs><style>.cls-1{fill:none;}.cls-2{fill:url(#Degradado_sin_nombre_83);}.cls-3{fill:url(#Degradado_sin_nombre_83-2);}.cls-4{fill:url(#Degradado_sin_nombre_83-3);}.cls-5{fill:url(#Degradado_sin_nombre_83-4);}.cls-6{fill:url(#Degradado_sin_nombre_83-5);}.cls-7{fill:url(#Degradado_sin_nombre_83-6);}.cls-8{fill:url(#Degradado_sin_nombre_83-7);}.cls-9{fill:url(#Degradado_sin_nombre_83-8);}.cls-10{fill:url(#Degradado_sin_nombre_83-9);}.cls-11{fill:url(#Degradado_sin_nombre_83-10);}.cls-12{fill:url(#Degradado_sin_nombre_83-11);}.cls-13{fill:url(#Degradado_sin_nombre_83-12);}.cls-14{fill:url(#Degradado_sin_nombre_83-14);}.cls-15{fill:url(#Degradado_sin_nombre_83-15);}.cls-16{fill:url(#Degradado_sin_nombre_83-16);}.cls-17{fill:url(#Degradado_sin_nombre_83-17);}.cls-18{fill:url(#Degradado_sin_nombre_83-18);}.cls-19{fill:url(#Degradado_sin_nombre_83-19);}.cls-20{fill:url(#Degradado_sin_nombre_83-20);}.cls-21{clip-path:url(#clip-path);}.cls-22{fill:#25282a;}</style><linearGradient id="Degradado_sin_nombre_83" x1="124.67" y1="32.89" x2="124.67" y2="119.74" gradientTransform="translate(16.15 -91.63) rotate(45)" gradientUnits="userSpaceOnUse"><stop offset="0" stop-color="#00cfc4"/><stop offset="1" stop-color="#1641d2"/></linearGradient><linearGradient id="Degradado_sin_nombre_83-2" x1="91.23" y1="32.89" x2="91.23" y2="119.74" xlink:href="#Degradado_sin_nombre_83"/><linearGradient id="Degradado_sin_nombre_83-3" x1="106.08" y1="32.89" x2="106.08" y2="119.74" xlink:href="#Degradado_sin_nombre_83"/><linearGradient id="Degradado_sin_nombre_83-4" x1="79.35" y1="32.89" x2="79.35" y2="119.74" xlink:href="#Degradado_sin_nombre_83"/><linearGradient id="Degradado_sin_nombre_83-5" x1="81.07" y1="32.89" x2="81.07" y2="119.74" xlink:href="#Degradado_sin_nombre_83"/><linearGradient id="Degradado_sin_nombre_83-6" x1="105.06" y1="32.89" x2="105.06" y2="119.74" xlink:href="#Degradado_sin_nombre_83"/><linearGradient id="Degradado_sin_nombre_83-7" x1="90.72" y1="32.89" x2="90.72" y2="119.74" xlink:href="#Degradado_sin_nombre_83"/><linearGradient id="Degradado_sin_nombre_83-8" x1="136.66" y1="32.89" x2="136.66" y2="119.74" xlink:href="#Degradado_sin_nombre_83"/><linearGradient id="Degradado_sin_nombre_83-9" x1="123.9" y1="32.89" x2="123.9" y2="119.74" xlink:href="#Degradado_sin_nombre_83"/><linearGradient id="Degradado_sin_nombre_83-10" x1="137.35" y1="32.89" x2="137.35" y2="119.74" xlink:href="#Degradado_sin_nombre_83"/><linearGradient id="Degradado_sin_nombre_83-11" x1="142.95" y1="32.89" x2="142.95" y2="119.74" xlink:href="#Degradado_sin_nombre_83"/><linearGradient id="Degradado_sin_nombre_83-12" x1="111.15" y1="32.89" x2="111.15" y2="119.74" xlink:href="#Degradado_sin_nombre_83"/><linearGradient id="Degradado_sin_nombre_83-14" x1="28.82" y1="40.86" x2="52.92" y2="40.86" gradientTransform="matrix(1, 0, 0, 1, 0, 0)" xlink:href="#Degradado_sin_nombre_83"/><linearGradient id="Degradado_sin_nombre_83-15" x1="28.81" y1="31.99" x2="47.23" y2="31.99" gradientTransform="matrix(1, 0, 0, 1, 0, 0)" xlink:href="#Degradado_sin_nombre_83"/><linearGradient id="Degradado_sin_nombre_83-16" x1="28.81" y1="49.72" x2="47.22" y2="49.72" gradientTransform="matrix(1, 0, 0, 1, 0, 0)" xlink:href="#Degradado_sin_nombre_83"/><linearGradient id="Degradado_sin_nombre_83-17" x1="28.8" y1="51.93" x2="41.52" y2="51.93" gradientTransform="matrix(1, 0, 0, 1, 0, 0)" xlink:href="#Degradado_sin_nombre_83"/><linearGradient id="Degradado_sin_nombre_83-18" x1="28.81" y1="29.79" x2="41.51" y2="29.79" gradientTransform="matrix(1, 0, 0, 1, 0, 0)" xlink:href="#Degradado_sin_nombre_83"/><linearGradient id="Degradado_sin_nombre_83-19" x1="28.81" y1="27.57" x2="35.85" y2="27.57" gradientTransform="matrix(1, 0, 0, 1, 0, 0)" xlink:href="#Degradado_sin_nombre_83"/><linearGradient id="Degradado_sin_nombre_83-20" x1="28.81" y1="54.15" x2="35.85" y2="54.15" gradientTransform="matrix(1, 0, 0, 1, 0, 0)" xlink:href="#Degradado_sin_nombre_83"/><clipPath id="clip-path"><path class="cls-1" d="M104.34,32.58l-.2,1.86L105.25,33l12-13.59h9.43L111.47,36l15.3,20.37h-9.23L106.15,40.61l-1.81,1.8v14H97V19.44h7.37Zm33.12,1.86.65,6-.15-.91a9.86,9.86,0,0,1,2.61-3.33,14.74,14.74,0,0,1,3.28-2.13,6.57,6.57,0,0,1,2.48-.76l-.35,7a6.23,6.23,0,0,0-4.21.8,7.65,7.65,0,0,0-2.71,2.91,7.9,7.9,0,0,0-.95,3.71v8.58h-7V34.44Zm21.87,22-10.74-22h7.88L164.75,53ZM153.46,66.9l14.6-32.46h6.32L160.23,66.9ZM192.24,57a10.63,10.63,0,0,1-3.84-.72,8.33,8.33,0,0,1-3.14-2.09l.2-2V66.9h-7v-33h6l1,4.26L185,36.69a16.11,16.11,0,0,1,3.82-2.4,11.58,11.58,0,0,1,4.86-1,10.53,10.53,0,0,1,5.47,1.43,10,10,0,0,1,3.79,4.12,14,14,0,0,1,1.38,6.44,12.06,12.06,0,0,1-1.56,6.32,10.13,10.13,0,0,1-4.26,4A13.78,13.78,0,0,1,192.24,57Zm-1.41-5.52a6.65,6.65,0,0,0,3.14-.75,6.06,6.06,0,0,0,2.31-2.13,5.75,5.75,0,0,0,.87-3.14,6.57,6.57,0,0,0-.77-3.23,5.7,5.7,0,0,0-5-2.94,7.56,7.56,0,0,0-2.48.38,5.85,5.85,0,0,0-1.91,1.1,6.78,6.78,0,0,0-1.42,1.83v5.37a5.49,5.49,0,0,0,1.15,1.86A5.09,5.09,0,0,0,188.5,51,6.39,6.39,0,0,0,190.83,51.44Zm21-26.63h7v9.53h5.31v5.47h-5.31V56.36h-7V39.81h-3.41V34.34h3.41Zm16,20.31a11.52,11.52,0,0,1,1.58-6,11.15,11.15,0,0,1,4.44-4.19,13.68,13.68,0,0,1,6.57-1.53A13.23,13.23,0,0,1,247,34.91a10.68,10.68,0,0,1,4.24,4.19,12.15,12.15,0,0,1,1.48,6,12.29,12.29,0,0,1-1.48,6.05A10.8,10.8,0,0,1,247,55.41,13.36,13.36,0,0,1,240.35,57a14.42,14.42,0,0,1-6.45-1.4,10.53,10.53,0,0,1-4.44-4.07A12.08,12.08,0,0,1,227.86,45.12Zm7.07.05a6.69,6.69,0,0,0,.7,3.09,5.64,5.64,0,0,0,1.91,2.18,4.72,4.72,0,0,0,2.71.8,5,5,0,0,0,2.86-.8A5.2,5.2,0,0,0,245,48.26a7.61,7.61,0,0,0,0-6.2,5.24,5.24,0,0,0-1.85-2.15,5,5,0,0,0-2.86-.81,4.73,4.73,0,0,0-2.71.81,5.69,5.69,0,0,0-1.91,2.15A6.66,6.66,0,0,0,234.93,45.17Z"/></clipPath></defs><g id="Layer_2" data-name="Layer 2"><g id="Layer_1-2" data-name="Layer 1"><path class="cls-2" d="M67.39,19.8a2.14,2.14,0,0,0,2.33.46,35.77,35.77,0,0,1,4,7.26l-3.58,1.42-.91.38.22.55a30.43,30.43,0,0,1,2,10.49,2.09,2.09,0,0,0-1,.55,2.14,2.14,0,1,0,3,0,2,2,0,0,0-.84-.51A31.76,31.76,0,0,0,70.8,30l4.51-1.77-.22-.56a36.31,36.31,0,0,0-4.42-8.15,2.14,2.14,0,1,0-3.28.3Zm5.32,22a.93.93,0,1,1-1.31,0A.92.92,0,0,1,72.71,41.76ZM69.56,17.63a.92.92,0,0,1,0,1.32.93.93,0,0,1-1.32-1.32A.92.92,0,0,1,69.56,17.63Z"/><path class="cls-3" d="M30.4,6.5a2.17,2.17,0,0,0,.5.79,2.14,2.14,0,0,0,.61.42,2.1,2.1,0,0,0,1.63.08,2.16,2.16,0,0,0,1.22-1.1,2.56,2.56,0,0,0,.18-.64,34.82,34.82,0,0,1,8.22-.54l-.25,3.83,0,1,.58,0A30.39,30.39,0,0,1,53.42,13a2.17,2.17,0,0,0,.08,1.13h0a2.05,2.05,0,0,0,.5.78,2.14,2.14,0,0,0,2.24.51,2.18,2.18,0,0,0,1.22-1.11,2.1,2.1,0,0,0,.07-1.63,2.12,2.12,0,0,0-2.74-1.29,2,2,0,0,0-.81.54A31.65,31.65,0,0,0,43.73,9.21L44,4.38l-.6,0a36.53,36.53,0,0,0-9.1.51,2.11,2.11,0,0,0-1-1,2.08,2.08,0,0,0-1.64-.08A2.15,2.15,0,0,0,30.4,6.5Zm24.8,6a.92.92,0,0,1,.71,0,.87.87,0,0,1,.48.53.88.88,0,0,1,0,.71.92.92,0,0,1-1.24.44.91.91,0,0,1-.48-.52.93.93,0,0,1,.56-1.2ZM32.1,4.9a.9.9,0,0,1,.72,0,1.2,1.2,0,0,1,.26.18,1.15,1.15,0,0,1,.22.35.92.92,0,0,1,0,.71.87.87,0,0,1-.53.48.92.92,0,0,1-.71,0,1,1,0,0,1-.48-.53h0a.92.92,0,0,1,0-.71A.88.88,0,0,1,32.1,4.9Z"/><path class="cls-4" d="M49.15,6.82A1.59,1.59,0,0,0,52,7.16a35.64,35.64,0,0,1,11.11,6l-2.94,4,.47.45a29.06,29.06,0,0,1,5.6,6.18,1.59,1.59,0,1,0,.86-.75l-.08,0A30.17,30.17,0,0,0,61.55,17l3-4-.46-.37A36.69,36.69,0,0,0,52.24,6.16a1.56,1.56,0,0,0-.08-.42,1.6,1.6,0,0,0-3,1.08Z"/><path class="cls-5" d="M7.2,31.84a2.61,2.61,0,0,0-.47-.41,35.08,35.08,0,0,1,2.91-7.26L13,26l.87.46.29-.51a30.52,30.52,0,0,1,6.76-8.27,2.14,2.14,0,0,0,1.06.4h0a2.14,2.14,0,0,0,2.33-1.93,2.08,2.08,0,0,0-.48-1.57,2.15,2.15,0,0,0-1.45-.77,2.11,2.11,0,0,0-1.56.49,2.07,2.07,0,0,0-.77,1.45,2.11,2.11,0,0,0,.14,1,31.55,31.55,0,0,0-6.79,8.12L9.17,22.52l-.3.53a36.76,36.76,0,0,0-3.29,8,2.13,2.13,0,0,0-.23,4.26h0a2.14,2.14,0,0,0,2.33-1.93A2.17,2.17,0,0,0,7.2,31.84Zm14.06-16a.94.94,0,0,1,1-.84.88.88,0,0,1,.57.27l.06.06a.94.94,0,1,1-1.65.51ZM5.46,34.14a.94.94,0,0,1-.84-1A.91.91,0,0,1,5,32.49a1,1,0,0,1,.69-.21.92.92,0,0,1,.57.27l.06.06a1,1,0,0,1,.21.69,1,1,0,0,1-.34.63A1,1,0,0,1,5.46,34.14Z"/><path class="cls-6" d="M15.29,17.5a1.59,1.59,0,0,0-.22-1A35.49,35.49,0,0,1,25.22,9l2.38,4.36.6-.24a29.25,29.25,0,0,1,7.63-2.38,1.6,1.6,0,1,0-.13-1,30.28,30.28,0,0,0-7.64,2.34l-2.4-4.41-.53.25a36.73,36.73,0,0,0-10.86,8,1.43,1.43,0,0,0-.42-.1,1.59,1.59,0,1,0,1.44,1.74Z"/><path class="cls-7" d="M20.86,70.72a2.13,2.13,0,0,0-3-2.87,35.28,35.28,0,0,1-5.41-5.78l3.12-2.25.78-.6L16,58.74a30.59,30.59,0,0,1-4.6-9.64,2.17,2.17,0,0,0,.81-.78,2.07,2.07,0,0,0,.23-1.63,2.14,2.14,0,1,0-3.59,2.05,2,2,0,0,0,.43.33,2.24,2.24,0,0,0,.94.29A31.48,31.48,0,0,0,14.66,59L10.74,61.8l.35.49A35.33,35.33,0,0,0,15,66.87c.67.67,1.37,1.3,2.08,1.91a2.11,2.11,0,0,0-.11,1.38,2,2,0,0,0,.55,1,2,2,0,0,0,.43.33,2.14,2.14,0,0,0,2.93-.75ZM10.58,48.13a.93.93,0,1,1,.24-1.71.7.7,0,0,1,.19.15.85.85,0,0,1,.24.42.92.92,0,0,1-.1.71h0A.89.89,0,0,1,10.58,48.13Zm8,22.3a.91.91,0,0,1-.43-.57.93.93,0,0,1,.1-.71,1,1,0,0,1,.57-.43.94.94,0,0,1,.71.11.79.79,0,0,1,.18.14.93.93,0,0,1-1.13,1.46Z"/><path class="cls-8" d="M8.79,54.12a1.58,1.58,0,0,0-1-.21A35.42,35.42,0,0,1,5.36,41.53l5-.29,0-.64a29.07,29.07,0,0,1,1.18-8.22,1.6,1.6,0,1,0-1-.24,30.43,30.43,0,0,0-1.2,8.11l-5,.3v.58A36.41,36.41,0,0,0,6.88,54.35a1.7,1.7,0,0,0-.27.33,1.6,1.6,0,1,0,2.18-.56Z"/><path class="cls-9" d="M59.75,71.55a2.14,2.14,0,0,0-3.88.8,2.48,2.48,0,0,0,0,.72,35.29,35.29,0,0,1-8,2.62l-.72-3.77L47,71l-.58.11a30.47,30.47,0,0,1-10.69,0,2.13,2.13,0,0,0-1.73-2,2.14,2.14,0,0,0-2.17,3.3,2.78,2.78,0,0,0,.26.32A2.13,2.13,0,0,0,34.8,73a2.13,2.13,0,0,0,.65-.72,31.7,31.7,0,0,0,10.6,0l.89,4.76.6-.11a36.81,36.81,0,0,0,8.85-2.82l.08.09a2.13,2.13,0,0,0,2.71.26A2.15,2.15,0,0,0,59.75,71.55ZM34.12,72a1,1,0,0,1-.7.15.93.93,0,0,1-.6-.4.94.94,0,0,1,.25-1.29,1,1,0,0,1,.7-.15,1,1,0,0,1,.48.26.76.76,0,0,1,.11.14h0a.91.91,0,0,1,.15.7A1,1,0,0,1,34.12,72Zm24.38,1.5a.93.93,0,0,1-1.44-.94,1,1,0,0,1,.39-.6.92.92,0,0,1,.7-.14.86.86,0,0,1,.48.25.81.81,0,0,1,.12.14h0a.91.91,0,0,1,.14.7A.88.88,0,0,1,58.5,73.52Z"/><path class="cls-10" d="M41.39,76a1.58,1.58,0,0,0-2.82.36,35.48,35.48,0,0,1-12.26-3l1.85-4.61-.56-.31a29.66,29.66,0,0,1-6.93-4.55,1.57,1.57,0,0,0-.18-1.42A1.59,1.59,0,1,0,20,64.68a29.92,29.92,0,0,0,6.81,4.53L25,73.88l.54.24a36.51,36.51,0,0,0,13.05,3.3,1.41,1.41,0,0,0,.19.39A1.59,1.59,0,0,0,41.39,76Z"/><path class="cls-11" d="M74.4,35.69A2.18,2.18,0,0,0,75,36.87a2.75,2.75,0,0,0,.26.22,2.23,2.23,0,0,0,.94.37,35,35,0,0,1-.85,11.93l-3.72-1-1-.23-.15.57A30.3,30.3,0,0,1,66,58.46a2.12,2.12,0,0,0-1.12-.13,2.17,2.17,0,0,0-1.4.86,2.14,2.14,0,0,0-.38,1.59,2.15,2.15,0,0,0,3.85.93,2.14,2.14,0,0,0,0-2.5,31.63,31.63,0,0,0,4.55-9.56l4.69,1.21.15-.58a36.15,36.15,0,0,0,1-13,2.13,2.13,0,0,0,.38-3.68,2.14,2.14,0,0,0-3.37,2.07ZM65.08,59.53a.93.93,0,0,1,.69.16,1.27,1.27,0,0,1,.12.1.93.93,0,0,1,.26.51A.92.92,0,0,1,66,61a.93.93,0,0,1-.61.37.9.9,0,0,1-.69-.17.88.88,0,0,1-.37-.61.92.92,0,0,1,.77-1.06Zm11.29-25.1h0a.9.9,0,0,1,.69.17.52.52,0,0,1,.11.1.87.87,0,0,1,.26.51.92.92,0,0,1-.67,1l-.18,0a.92.92,0,0,1-.62-.16.93.93,0,0,1-.37-.61.89.89,0,0,1,.17-.69A1,1,0,0,1,76.37,34.43Z"/><path class="cls-12" d="M71.53,57.25a1.57,1.57,0,0,0,.46.88,35.57,35.57,0,0,1-8,9.8l-3.39-3.64-.52.38a29.45,29.45,0,0,1-7,4.28,1.59,1.59,0,0,0-2.71,1.36,1.59,1.59,0,0,0,3.15-.42,30,30,0,0,0,6.92-4.2l3.42,3.67.45-.38a36.34,36.34,0,0,0,8.55-10.4,1.55,1.55,0,0,0,.43,0,1.59,1.59,0,1,0-1.83-1.33Z"/><path class="cls-13" d="M60,21.73A27.05,27.05,0,1,0,60,60,27.1,27.1,0,0,0,60,21.73Zm-37.4,37.4a25.84,25.84,0,1,1,36.54,0A25.86,25.86,0,0,1,22.59,59.13Z"/><path class="cls-13" d="M69.76,12a40.88,40.88,0,1,0,0,57.81A40.94,40.94,0,0,0,69.76,12Zm-56.95,57a39.67,39.67,0,1,1,56.1,0A39.71,39.71,0,0,1,12.81,68.91Z"/><path class="cls-14" d="M42.4,40.86l3.53,4.37,6.61,8.18a2.78,2.78,0,0,1,.26.34.71.71,0,0,1-.19,1,.67.67,0,0,1-1-.08,9.59,9.59,0,0,1-.65-.78Q46.23,48,41.45,42.05a1.07,1.07,0,0,0-.93-.46c-3.53,0-7.05,0-10.58,0a2.57,2.57,0,0,1-.48,0,.68.68,0,0,1-.64-.72.69.69,0,0,1,.66-.75,3.85,3.85,0,0,1,.48,0H40.6a.93.93,0,0,0,.8-.38q5-6.19,10-12.37a2.88,2.88,0,0,1,.28-.33.69.69,0,0,1,1-.06.71.71,0,0,1,.17,1,3.47,3.47,0,0,1-.29.38L42.71,40.48Z"/><path class="cls-15" d="M34.48,37.16H29.75c-.62,0-.92-.24-.94-.7s.31-.77.92-.77c2.9,0,5.81,0,8.72,0a1,1,0,0,0,.85-.4c2.1-2.63,4.22-5.24,6.34-7.86a2.76,2.76,0,0,1,.31-.37.74.74,0,0,1,1.13.94,2.78,2.78,0,0,1-.26.34C44.55,31.15,42.27,34,40,36.78a.93.93,0,0,1-.8.39C37.63,37.15,36.06,37.16,34.48,37.16Z"/><path class="cls-16" d="M34.5,44.55c1.58,0,3.16,0,4.74,0a1,1,0,0,1,.7.32c2.34,2.85,4.65,5.72,7,8.59.43.54.41,1.07-.06,1.31s-.79,0-1.09-.35q-3.23-4-6.44-8a1,1,0,0,0-.89-.42c-2.89,0-5.78,0-8.67,0-.47,0-.86-.12-.94-.65s.25-.83.85-.83c1.61,0,3.22,0,4.83,0Z"/><path class="cls-17" d="M33.47,49c1.22,0,2.44,0,3.67,0a1,1,0,0,1,.65.3c1.17,1.4,2.31,2.83,3.45,4.25.37.46.36.93,0,1.21s-.77.18-1.14-.27q-1.47-1.81-2.93-3.64a.89.89,0,0,0-.8-.38H29.72a.81.81,0,0,1-.84-.43c-.25-.53.12-1.05.77-1.06Z"/><path class="cls-18" d="M33.47,32.75H29.86c-.71,0-1.05-.25-1.05-.76s.33-.73,1-.73c2.16,0,4.32,0,6.48,0a1,1,0,0,0,.89-.43c.94-1.2,1.9-2.37,2.86-3.56.4-.48.8-.59,1.18-.3s.37.76,0,1.25C40.09,29.63,39,31,37.84,32.41a.85.85,0,0,1-.76.35C35.88,32.74,34.67,32.75,33.47,32.75Z"/><path class="cls-19" d="M32.34,28.31c-.89,0-1.77,0-2.66,0-.54,0-.86-.27-.87-.72s.31-.76.88-.76H35c.56,0,.9.29.9.74s-.35.74-.91.75h-2.6Z"/><path class="cls-20" d="M32.29,54.89h-2.6c-.57,0-.89-.29-.88-.76s.33-.72.87-.73h5.25c.57,0,.91.29.92.74s-.34.74-.9.75Z"/><g class="cls-21"><rect class="cls-22" x="88.46" y="8.56" width="169.88" height="64.39"/></g></g></g></svg>