<svg xmlns="http://www.w3.org/2000/svg" viewBox="0 0 89.6 97.02"><defs><style>.cls-1{fill:#fff;}.cls-2{fill:#141c3a;}</style></defs><g id="Layer_2" data-name="Layer 2"><g id="Layer_1-2" data-name="Layer 1"><path class="cls-1" d="M36.08,55a24.92,24.92,0,0,1-2.59.75,7.47,7.47,0,0,1-3.92-14.33,1.29,1.29,0,0,0,.9-1A7.41,7.41,0,0,1,37.84,35a10.74,10.74,0,0,1,1.86.29.77.77,0,0,0,.71-.15,8.81,8.81,0,0,1,11.77,1,.78.78,0,0,0,.77.26,7.5,7.5,0,0,1,8.48,6.68,1,1,0,0,0,.45.71,7.51,7.51,0,0,1,.47,11.46,7.13,7.13,0,0,1-3.13,1.71.68.68,0,0,0-.58.62,7.5,7.5,0,0,1-13.93,2.26.81.81,0,0,0-.86-.49,8.31,8.31,0,0,1-7.6-4.06ZM46,59c.78,2.14,3.87,3.64,6.41,3.16s4.87-2.85,4.81-4.85c-.47,0-1,.08-1.43.08a1.24,1.24,0,0,0-1,.38,1.81,1.81,0,0,1-2.07.34,1.95,1.95,0,0,1-.15-3.48,1.93,1.93,0,0,1,2.71.92c.09.19.09.46.41.43l1.67-.1A6.09,6.09,0,0,0,56.57,53l1.23-.71c.23.58.47,1.08.64,1.6s.26,1.07.38,1.6c1.9-.23,3.89-2.29,4.4-4.48a5.82,5.82,0,0,0-1.83-5.77c-.18.52-.32,1.06-.55,1.56A9.48,9.48,0,0,1,60,48.28a1.53,1.53,0,0,0-.32.95,1.87,1.87,0,0,1-2.12,1.89,1.93,1.93,0,1,1,.69-3.79l.55.17a6,6,0,0,0,.12-7.26c-1.26-1.76-4-3-5.43-2.41a9.73,9.73,0,0,1,1.12,3.36.76.76,0,0,0,.35.43,2,2,0,0,1,.86,2.22,1.95,1.95,0,0,1-3.7.09,1.88,1.88,0,0,1,.75-2.24.57.57,0,0,0,.28-.68,7.5,7.5,0,1,0-9,8.56.59.59,0,0,0,.73-.26,1.9,1.9,0,0,1,2.66-.46,1.86,1.86,0,0,1,.8,2,1.9,1.9,0,0,1-1.58,1.53,1.88,1.88,0,0,1-1.95-.88,1,1,0,0,0-.73-.51,8.91,8.91,0,0,1-5.53-13.93c.11-.14.21-.29.35-.5a3.33,3.33,0,0,0-.6-.12,11.84,11.84,0,0,0-1.88.09,6.13,6.13,0,0,0-4.22,8.86.62.62,0,0,0,.69.4,2.05,2.05,0,0,1,.92.11A1.9,1.9,0,0,1,35,48.29a2,2,0,0,1-2.39,1.22,1.88,1.88,0,0,1-1.28-2.28,1.23,1.23,0,0,0-.15-1,6.87,6.87,0,0,1-.92-2.89c0-.21-.08-.41-.12-.64a2.47,2.47,0,0,0-.39.13,6,6,0,0,0-3.6,5.57,6.16,6.16,0,0,0,9,5.48c.29-.15.41-.31.28-.65a4.11,4.11,0,0,1-.22-.92c-.06-.45-.08-.9-.12-1.34h1.35c0,.13,0,.22,0,.32A7.09,7.09,0,1,0,45.12,44a.64.64,0,0,0-.83.28,1.85,1.85,0,0,1-2.23.63,1.93,1.93,0,0,1,.16-3.67,1.89,1.89,0,0,1,2.17.83,1,1,0,0,0,.72.5,8.48,8.48,0,0,1,1.45,16.23ZM33.67,47.65a.57.57,0,0,0-.57-.55.62.62,0,0,0-.54.55.58.58,0,0,0,.56.57A.55.55,0,0,0,33.67,47.65ZM58.3,49.22a.55.55,0,0,0-.51-.55.56.56,0,0,0-.56.49.54.54,0,1,0,1.07.06Zm-4.8,7.66a.53.53,0,0,0,.5-.55.54.54,0,0,0-.53-.53.55.55,0,0,0-.51.56A.53.53,0,0,0,53.5,56.88ZM42.77,43.61a.55.55,0,0,0,.52-.54.54.54,0,1,0-.52.54Zm11.71-.33a.53.53,0,0,0-.54-.52.53.53,0,0,0-.51.55.54.54,0,0,0,.54.52A.53.53,0,0,0,54.48,43.28ZM47,50.45a.55.55,0,0,0-.53-.53.53.53,0,1,0,0,1.06A.55.55,0,0,0,47,50.45Z"/><path class="cls-1" d="M73.29,74.17a36.56,36.56,0,0,0-.83-48.53l4-6.18c16.51,14.73,18,43.83,1.27,60.67Z"/><path class="cls-1" d="M42.24,6.84c-.32,2.51-.63,4.89-1,7.38C22.71,18,12,29.32,9.46,48.36a33.55,33.55,0,0,0-3.61,0,32.27,32.27,0,0,0-3.44.7C1.73,31.89,16.24,9.06,42.24,6.84Z"/><path class="cls-1" d="M46.91,86.79c.64,2.51,1.22,4.81,1.8,7.12C34,95.51,16.79,87.42,8.8,73.4l6.71-3C27.25,83.39,30.2,84.93,46.91,86.79Z"/><path class="cls-1" d="M59.28,0h.4l.14,0c.46,0,.91.06,1.37.11a10.61,10.61,0,0,1,2.15.48A12.57,12.57,0,0,1,69.59,5a12.41,12.41,0,0,1,2.61,7.26l0,.26V13c0,.24,0,.48,0,.73a11.27,11.27,0,0,1-.29,1.92,12.3,12.3,0,0,1-2.65,5.3,12.58,12.58,0,0,1-9,4.54,12.27,12.27,0,0,1-2,0A12,12,0,0,1,56,25a12.8,12.8,0,0,1-9.26-11.48,12.42,12.42,0,0,1,.07-2.28,12.28,12.28,0,0,1,.49-2.32,12.67,12.67,0,0,1,5.22-6.87A12.41,12.41,0,0,1,59,0C59.08,0,59.18,0,59.28,0ZM52.44,5.77c0,.27,0,.51.06.76l.12,1.3c0,.41.07.82.11,1.22s.08.85.11,1.27.08.83.11,1.25l.12,1.26c0,.41.07.83.11,1.25s.07.83.11,1.25.07.83.11,1.25c.05.6.11,1.19.17,1.79s.1,1.09.14,1.63a.17.17,0,0,0,.15.18l5.51,1.52a.41.41,0,0,0,.19,0l2-.56,3.53-1c.09,0,.14-.05.15-.16,0-.29,0-.58.07-.87l.12-1.29c0-.41.07-.81.11-1.22l.12-1.31c0-.4.07-.8.1-1.2l.12-1.32c0-.4.07-.8.11-1.2s.07-.85.11-1.28.07-.82.11-1.23.09-1,.14-1.53l.12-1.32,0-.48Z"/><path class="cls-1" d="M55.64,14.87h1.59c.1,0,.15,0,.16.14,0,.41.07.81.1,1.22a.14.14,0,0,0,.12.13l1.79.48a.54.54,0,0,0,.18,0l1.75-.48a.15.15,0,0,0,.14-.15c0-.32.05-.65.08-1s.07-.67.1-1v-.08c0-.11,0-.14-.13-.14H55.7c-.1,0-.14,0-.15-.14,0-.51-.1-1-.14-1.54s-.07-.8-.11-1.21-.08-.85-.11-1.27-.07-.74-.1-1.12h8.78c0,.18,0,.37,0,.55l-.09,1c0,.18,0,.18-.2.18H57.17c-.2,0-.2,0-.18.21,0,.39.08.8.11,1.2,0,.11,0,.23,0,.34s0,.07.09.09a.4.4,0,0,0,.11,0h6.21c0,.22,0,.42,0,.63l-.09,1-.12,1.3c0,.39-.07.79-.11,1.18s-.06.8-.1,1.2a.21.21,0,0,1-.13.11l-1.49.42-1.87.51a.59.59,0,0,1-.23,0L56,17.7c-.1,0-.13-.07-.14-.17,0-.51-.09-1-.14-1.54C55.7,15.63,55.67,15.26,55.64,14.87Z"/><circle class="cls-1" cx="59.48" cy="12.97" r="10.6"/><path class="cls-2" d="M59.88,15.67c.39.14.75.28,1.12.4a4.65,4.65,0,0,0,2.13.19,2,2,0,0,0,.62-.21,1,1,0,0,0,.18-1.72,3.35,3.35,0,0,0-1.15-.61,8,8,0,0,1-2-1A2.8,2.8,0,0,1,59.53,10,3,3,0,0,1,61.41,7.6a5.55,5.55,0,0,1,2.73-.42,6.37,6.37,0,0,1,2.06.47l.12.06,0,0-.55,1.9c-.37-.11-.72-.24-1.08-.33a3.66,3.66,0,0,0-1.83-.05,1.07,1.07,0,0,0-.85.72.81.81,0,0,0,.36,1,8,8,0,0,0,1.24.63,11.36,11.36,0,0,1,1.7.79,2.92,2.92,0,0,1,1.45,2.8,3,3,0,0,1-1.86,2.66,6,6,0,0,1-3,.47,7.06,7.06,0,0,1-2.36-.54c-.24-.1-.23-.11-.17-.36C59.59,16.83,59.74,16.25,59.88,15.67Z"/><path class="cls-2" d="M55.32,7.35h2.42a1.21,1.21,0,0,1,0,.19v6.63a5.83,5.83,0,0,1-.33,2.11,3,3,0,0,1-2.5,2,6.35,6.35,0,0,1-2.53-.1c-.25-.06-.25-.06-.22-.31.08-.53.15-1.06.22-1.59a1,1,0,0,1,0-.12c.36.05.71.11,1.07.14a3.07,3.07,0,0,0,.74-.05,1.35,1.35,0,0,0,1-1.25,5.46,5.46,0,0,0,.07-.9q0-3.24,0-6.48A1.91,1.91,0,0,1,55.32,7.35Z"/><path class="cls-1" d="M7.1,53.45h.23l.08,0c.26,0,.52,0,.77.06a6.33,6.33,0,0,1,1.22.27,7.22,7.22,0,0,1,5,6.6.77.77,0,0,0,0,.15v.25l0,.42a6.85,6.85,0,0,1-.17,1.09,7,7,0,0,1-1.5,3,7.12,7.12,0,0,1-5.09,2.57,7.24,7.24,0,0,1-1.14,0,6.7,6.7,0,0,1-1.25-.23,7.17,7.17,0,0,1-4-2.82A7,7,0,0,1,0,61.12a8,8,0,0,1,0-1.29,6.36,6.36,0,0,1,.28-1.31,7.12,7.12,0,0,1,3-3.89,7,7,0,0,1,3.65-1.16ZM3.23,56.72c0,.15,0,.29,0,.43l.06.74.06.69c0,.24,0,.48.07.72l.06.7c0,.24,0,.48.07.72l.06.71.06.7.06.71c0,.34.07.68.1,1s.06.61.08.92a.09.09,0,0,0,.08.1l3.13.86a.17.17,0,0,0,.1,0l1.14-.32,2-.55s.08,0,.08-.09,0-.33,0-.49.05-.49.07-.73l.06-.69c0-.25,0-.5.07-.75l.06-.68c0-.24,0-.49.07-.74s0-.45.06-.68L11,59.3l.06-.69c0-.29.06-.58.08-.87s.05-.5.07-.75c0-.09,0-.17,0-.27Z"/><path class="cls-1" d="M5,61.87h.17c.24,0,.48,0,.73,0,.06,0,.09,0,.09.08l.06.7a.08.08,0,0,0,.07.07l1,.27h.1l1-.27c.05,0,.08,0,.08-.09s0-.36.05-.54l0-.58a.06.06,0,0,1,0,0c0-.06,0-.08-.08-.08H5.08c-.06,0-.09,0-.09-.08,0-.29,0-.58-.08-.87l-.06-.68c0-.24,0-.48-.07-.72s0-.42,0-.64h5c0,.11,0,.21,0,.32l-.06.55c0,.1,0,.1-.11.1H5.91c-.12,0-.11,0-.1.12l.06.68c0,.06,0,.13,0,.19s0,0,.05,0,0,0,.06,0H9.52l0,.36c0,.19,0,.37-.05.56s0,.49-.07.73l-.06.68c0,.22,0,.45-.06.68,0,0,0,0-.07.06l-.84.23L7.28,64a.29.29,0,0,1-.13,0l-1.9-.52c-.06,0-.07,0-.08-.1,0-.29,0-.58-.08-.87S5.06,62.1,5,61.87Z"/><circle class="cls-1" cx="7.21" cy="60.8" r="6"/><path class="cls-2" d="M7.5,55.52l.25,0c.27,0,.55.06.82.11a1.41,1.41,0,0,1,1,.75,1,1,0,0,1,.11.49c0,.78,0,1.56,0,2.34A1.17,1.17,0,0,1,9,60.32a1.2,1.2,0,0,1-.67.17H6a1.54,1.54,0,0,0-1.33.69,1.49,1.49,0,0,0-.26.84v1.12H3.51a1.08,1.08,0,0,1-.88-.49,2.07,2.07,0,0,1-.33-.76,4.66,4.66,0,0,1-.17-1.44,3.93,3.93,0,0,1,.28-1.36,1.42,1.42,0,0,1,1.32-.92c.36,0,.72,0,1.08,0H7.2v-.31H4.84c-.08,0-.09,0-.08-.09v-.92a1.75,1.75,0,0,1,0-.46.87.87,0,0,1,.57-.58,3.72,3.72,0,0,1,.8-.19l.75-.07H7.5ZM5.83,57.21a.46.46,0,0,0,.46-.46.47.47,0,0,0-.46-.47.45.45,0,0,0-.46.47A.46.46,0,0,0,5.83,57.21Z"/><path class="cls-2" d="M10,58.15h.89a1.11,1.11,0,0,1,.7.21,1.34,1.34,0,0,1,.41.58,4,4,0,0,1,.25.92,4.18,4.18,0,0,1,.08,1.06,3.6,3.6,0,0,1-.54,1.77.94.94,0,0,1-.79.45H7.22v.31H9.65v1a.91.91,0,0,1-.24.65,1.56,1.56,0,0,1-.65.45,4.39,4.39,0,0,1-1.19.28,4,4,0,0,1-1.91-.29A2.3,2.3,0,0,1,5,65.11a1,1,0,0,1-.28-.73V62.07a1.27,1.27,0,0,1,.14-.61,1.2,1.2,0,0,1,.94-.64,5.67,5.67,0,0,1,.71,0H8.42A1.57,1.57,0,0,0,10,59.48a1.94,1.94,0,0,0,0-.24V58.15ZM8.13,64.54a.46.46,0,1,0,.47-.46A.46.46,0,0,0,8.13,64.54Z"/><path class="cls-1" d="M62.85,76.08h.33l.12,0,1.11.09a8.73,8.73,0,0,1,1.77.39,10.43,10.43,0,0,1,5.14,3.61,10.33,10.33,0,0,1,2.15,6,1.49,1.49,0,0,0,0,.21v.37c0,.2,0,.4,0,.6a9.41,9.41,0,0,1-.23,1.58A10.23,10.23,0,0,1,71,93.27,10.36,10.36,0,0,1,63.65,97,10.23,10.23,0,0,1,62,97a10.38,10.38,0,0,1-7.55-4.43,10.27,10.27,0,0,1-1.87-5.34,10.63,10.63,0,0,1,0-1.87,10.46,10.46,0,0,1,10-9.23Zm-5.62,4.74c0,.22,0,.42.05.62,0,.36.07.72.1,1.07l.09,1,.09,1,.09,1c0,.35.07.69.1,1l.09,1,.09,1,.09,1c0,.49.09,1,.14,1.47s.08.89.11,1.34a.14.14,0,0,0,.12.14l4.54,1.26a.38.38,0,0,0,.15,0l1.65-.45,2.9-.81c.07,0,.12,0,.12-.13s0-.47.06-.71.07-.71.1-1.06l.09-1,.09-1.08.09-1c0-.36.07-.71.1-1.07l.09-1,.09-1.06.09-1,.12-1.26.09-1.09,0-.39Z"/><path class="cls-1" d="M59.86,88.29h1.3c.09,0,.13,0,.13.12l.09,1c0,.07,0,.09.1.11l1.47.39a.38.38,0,0,0,.15,0l1.43-.39a.14.14,0,0,0,.12-.13c0-.26,0-.53.07-.79s0-.56.07-.83a.13.13,0,0,0,0-.06c0-.1,0-.12-.11-.12H59.91c-.09,0-.12,0-.13-.11,0-.42-.07-.84-.11-1.26l-.09-1-.09-1c0-.31-.06-.61-.08-.92h7.21c0,.15,0,.3,0,.45s0,.54-.07.8,0,.16-.17.16H61.11c-.16,0-.16,0-.14.16,0,.33.06.66.09,1a2.66,2.66,0,0,0,0,.28s0,.06.07.07a.34.34,0,0,0,.1,0h5.1c0,.18,0,.35,0,.52s0,.54-.07.81-.07.71-.1,1.07-.06.65-.08,1l-.09,1a.18.18,0,0,1-.1.09L64.64,91l-1.54.42a.37.37,0,0,1-.18,0l-2.76-.76c-.08,0-.1-.06-.11-.14,0-.42-.08-.84-.11-1.26S59.88,88.61,59.86,88.29Z"/><circle class="cls-1" cx="63.01" cy="86.74" r="8.71"/><path class="cls-2" d="M57.52,81h11c0,.12,0,.25,0,.37,0,.34-.07.69-.1,1s-.07.8-.11,1.2,0,.64-.08,1l-.09,1-.09.94-.09,1c0,.31-.05.62-.08.94l-.09,1-.09,1-.09,1c0,.23,0,.45-.06.68,0,.08,0,.11-.11.12L64.66,93l-1.57.43h-.15l-4.31-1.2a.13.13,0,0,1-.12-.13c0-.43-.07-.85-.11-1.28s-.09-.93-.13-1.4-.05-.65-.08-1l-.09-1-.09-1-.09-1c0-.32-.05-.65-.08-1l-.09-1-.09-1-.09-1C57.56,81.39,57.54,81.19,57.52,81Zm2.5,7.1c0,.3,0,.59.07.88s.08.79.11,1.19c0,.09,0,.12.11.14l2.62.72a.28.28,0,0,0,.18,0l1.45-.4,1.17-.32a.16.16,0,0,0,.1-.08c0-.32,0-.63.08-.94s.06-.62.08-.93.06-.67.1-1,0-.52.07-.77,0-.32,0-.5H61.35a.27.27,0,0,1-.09,0s-.07,0-.07-.06a2.48,2.48,0,0,1,0-.27c0-.32,0-.63-.08-.94,0-.16,0-.16.13-.16h5c.15,0,.15,0,.16-.14s0-.51.07-.77l0-.43H59.59c0,.3,0,.59.08.88l.09,1c0,.32.05.63.08,1s.08.8.11,1.2c0,.09,0,.11.12.1h4.54c.09,0,.12,0,.11.11a.13.13,0,0,0,0,.06c0,.26,0,.53-.07.79s0,.5-.07.75c0,.08,0,.11-.11.13l-1.36.37a.33.33,0,0,1-.14,0l-1.4-.37c-.06,0-.09,0-.09-.11l-.09-1c0-.1,0-.11-.12-.11H60Z"/><path class="cls-1" d="M60,88.09h1.24c.08,0,.12,0,.12.11l.09,1c0,.07,0,.09.09.11l1.4.37a.33.33,0,0,0,.14,0l1.36-.37c.07,0,.11-.05.11-.13,0-.25.05-.5.07-.75s0-.53.07-.79a.13.13,0,0,1,0-.06c0-.09,0-.11-.11-.11H60.07c-.08,0-.11,0-.12-.1,0-.4-.07-.8-.11-1.2s-.05-.63-.08-1l-.09-1c0-.29-.05-.58-.08-.88h6.85l0,.43c0,.26,0,.51-.07.77s0,.14-.16.14h-5c-.15,0-.15,0-.13.16,0,.31.06.62.08.94a2.48,2.48,0,0,0,0,.27s0,0,.07.06a.27.27,0,0,0,.09,0H66.2c0,.18,0,.34,0,.5s0,.51-.07.77-.07.67-.1,1,0,.62-.08.93,0,.62-.08.94a.16.16,0,0,1-.1.08l-1.17.32-1.45.4a.28.28,0,0,1-.18,0l-2.62-.72c-.08,0-.1,0-.11-.14,0-.4-.07-.79-.11-1.19S60.05,88.39,60,88.09Z"/></g></g></svg>