<svg xmlns="http://www.w3.org/2000/svg" viewBox="0 0 368.45 68.94"><defs><style>.cls-1{fill:#7510f7;}.cls-2{fill:#fff;}</style></defs><g id="Layer_2" data-name="Layer 2"><g id="Layer_1-2" data-name="Layer 1"><path class="cls-1" d="M25.63,39.09a15,15,0,0,1-1.83.53A5.31,5.31,0,0,1,21,29.44a.93.93,0,0,0,.64-.69,5.26,5.26,0,0,1,5.24-3.87,8.63,8.63,0,0,1,1.32.21.56.56,0,0,0,.5-.1,6.26,6.26,0,0,1,8.37.67.54.54,0,0,0,.55.18,5.33,5.33,0,0,1,6,4.75.7.7,0,0,0,.32.5,5.33,5.33,0,0,1,.33,8.14,5,5,0,0,1-2.22,1.22.49.49,0,0,0-.41.45,5.33,5.33,0,0,1-9.9,1.6.57.57,0,0,0-.61-.35,5.9,5.9,0,0,1-5.4-2.89Zm7,2.84a4.27,4.27,0,0,0,4.56,2.24c1.77-.33,3.46-2,3.41-3.44-.33,0-.67.06-1,.06a.9.9,0,0,0-.7.27,1.28,1.28,0,0,1-1.46.24,1.38,1.38,0,0,1-.11-2.47,1.38,1.38,0,0,1,1.93.65c.06.13.06.32.29.31l1.18-.08a4.36,4.36,0,0,0-.54-2l.87-.5a12.17,12.17,0,0,1,.45,1.14c.12.37.19.76.28,1.14a4.27,4.27,0,0,0,3.12-3.19,4.1,4.1,0,0,0-1.3-4.09c-.13.37-.23.75-.39,1.1a6.5,6.5,0,0,1-.6,1,1.11,1.11,0,0,0-.22.68,1.35,1.35,0,0,1-1.51,1.35,1.38,1.38,0,1,1,.49-2.7c.13,0,.27.08.39.12a4.29,4.29,0,0,0,.09-5.16C41,27.34,39,26.48,38,26.88a7,7,0,0,1,.79,2.38.64.64,0,0,0,.25.32,1.38,1.38,0,0,1,.61,1.57,1.38,1.38,0,1,1-2.09-1.53.39.39,0,0,0,.19-.48,5.33,5.33,0,1,0-6.39,6.09.43.43,0,0,0,.52-.19,1.35,1.35,0,0,1,1.89-.33,1.33,1.33,0,0,1,.57,1.42,1.36,1.36,0,0,1-1.12,1.08,1.33,1.33,0,0,1-1.39-.62.66.66,0,0,0-.52-.36,6.33,6.33,0,0,1-3.93-9.9l.25-.36a1.52,1.52,0,0,0-.42-.08,8.53,8.53,0,0,0-1.34.06,4.35,4.35,0,0,0-3,6.29.43.43,0,0,0,.49.29,1.64,1.64,0,0,1,.66.07,1.37,1.37,0,0,1,.8,1.72,1.4,1.4,0,0,1-1.69.86,1.35,1.35,0,0,1-.92-1.62.81.81,0,0,0-.1-.73,5,5,0,0,1-.66-2,4,4,0,0,0-.08-.46l-.28.09a4.32,4.32,0,0,0-2.56,4,4.38,4.38,0,0,0,2.82,4.09,4.3,4.3,0,0,0,3.56-.2c.21-.1.3-.22.2-.46a2.92,2.92,0,0,1-.15-.65c0-.32-.06-.64-.09-1h1c0,.1,0,.17,0,.23a5,5,0,1,0,6.19-5.18.46.46,0,0,0-.59.2,1.32,1.32,0,0,1-1.59.45A1.36,1.36,0,0,1,29,30.57a1.42,1.42,0,0,1,1-1.29,1.34,1.34,0,0,1,1.54.59.72.72,0,0,0,.52.36,6,6,0,0,1,1,11.53Zm-8.73-8.07a.39.39,0,0,0-.4-.39.45.45,0,0,0-.39.38.42.42,0,0,0,.4.41A.38.38,0,0,0,23.92,33.86ZM41.43,35a.39.39,0,0,0-.77,0,.4.4,0,0,0,.38.42A.41.41,0,0,0,41.43,35ZM38,40.41a.37.37,0,0,0,.36-.39.37.37,0,1,0-.74,0A.37.37,0,0,0,38,40.41ZM30.39,31a.4.4,0,0,0,.37-.39.38.38,0,1,0-.76,0A.4.4,0,0,0,30.39,31Zm8.32-.24a.38.38,0,0,0-.38-.37.39.39,0,0,0-.37.39.39.39,0,0,0,.39.37A.37.37,0,0,0,38.71,30.75Zm-5.33,5.1a.38.38,0,1,0-.38.37A.4.4,0,0,0,33.38,35.85Z"/><path class="cls-1" d="M52.08,52.7a26,26,0,0,0-.59-34.48l2.85-4.39c11.72,10.46,12.79,31.14.9,43.11Z"/><path class="cls-1" d="M30,4.86l-.67,5.24C16.14,12.77,8.55,20.83,6.72,34.36a24.35,24.35,0,0,0-2.56,0,23.65,23.65,0,0,0-2.45.5C1.23,22.66,11.54,6.44,30,4.86Z"/><path class="cls-1" d="M33.33,61.67l1.28,5.06C24.18,67.86,11.93,62.12,6.25,52.15L11,50.05C19.37,59.25,21.46,60.34,33.33,61.67Z"/><path class="cls-1" d="M42.12,0h.28l.11,0,1,.07A8.05,8.05,0,0,1,45,.43a9.08,9.08,0,0,1,6.3,8.29,1.1,1.1,0,0,0,0,.18v.32c0,.17,0,.35,0,.52a8,8,0,0,1-.21,1.37,8.79,8.79,0,0,1-1.88,3.76,8.94,8.94,0,0,1-6.39,3.23,8.54,8.54,0,0,1-1.43,0,8.37,8.37,0,0,1-1.57-.3,9,9,0,0,1-6.58-8.15,8.77,8.77,0,0,1,0-1.62,8.53,8.53,0,0,1,.36-1.65,8.94,8.94,0,0,1,3.7-4.88A8.79,8.79,0,0,1,41.91,0ZM37.26,4.1c0,.19,0,.37.05.54s0,.62.08.92,0,.58.08.87.05.6.08.9.05.59.08.89,0,.6.08.89,0,.6.08.89.05.59.08.89.05.59.07.89l.12,1.27c0,.39.07.78.1,1.16a.13.13,0,0,0,.11.13l3.92,1.08a.19.19,0,0,0,.13,0L43.75,15l2.51-.69c.06,0,.1,0,.1-.12s0-.41.06-.61,0-.61.08-.92,0-.58.07-.87l.09-.93c0-.28.05-.57.07-.85l.09-.93c0-.29,0-.57.07-.86L47,7.34c0-.29.05-.58.07-.87s.07-.73.1-1.09l.09-.94c0-.11,0-.22,0-.34Z"/><path class="cls-1" d="M39.53,10.57h1.13c.07,0,.11,0,.12.1,0,.29,0,.58.07.87,0,.06,0,.08.09.1l1.27.34a.25.25,0,0,0,.12,0l1.25-.33a.13.13,0,0,0,.1-.11c0-.23,0-.46.06-.69l.06-.72a.07.07,0,0,1,0,0c0-.08,0-.1-.1-.1H39.58c-.08,0-.11,0-.11-.1,0-.36-.07-.73-.1-1.09s0-.57-.07-.86L39.21,7c0-.26,0-.52-.07-.79h6.24l0,.39c0,.23-.05.46-.06.7s0,.13-.15.13H40.62c-.14,0-.14,0-.12.14s0,.57.08.85a1,1,0,0,0,0,.25s0,.05.06.06h4.5c0,.16,0,.3,0,.45s0,.47-.07.7,0,.62-.08.92,0,.57-.07.85,0,.57-.08.85c0,0,0,.07-.09.08l-1.06.29-1.33.37a.29.29,0,0,1-.16,0l-2.38-.65a.11.11,0,0,1-.1-.13c0-.36-.07-.72-.1-1.09S39.56,10.84,39.53,10.57Z"/><circle class="cls-1" cx="42.26" cy="9.22" r="7.53"/><path class="cls-2" d="M42.55,11.13c.27.1.53.21.79.29a3.27,3.27,0,0,0,1.52.13,1.21,1.21,0,0,0,.44-.15.74.74,0,0,0,.12-1.22,2.43,2.43,0,0,0-.81-.43,5.67,5.67,0,0,1-1.4-.68,2,2,0,0,1-.91-2A2.1,2.1,0,0,1,43.64,5.4a4,4,0,0,1,1.93-.3A4.38,4.38,0,0,1,47,5.44l.09,0,0,0-.39,1.35c-.26-.08-.51-.18-.77-.24a2.72,2.72,0,0,0-1.3,0,.74.74,0,0,0-.6.51.58.58,0,0,0,.25.69,6,6,0,0,0,.88.44,7.85,7.85,0,0,1,1.21.57,2.07,2.07,0,0,1,1,2,2.14,2.14,0,0,1-1.33,1.9A4.31,4.31,0,0,1,44,13a4.9,4.9,0,0,1-1.68-.39c-.16-.07-.16-.07-.12-.25C42.34,12,42.45,11.55,42.55,11.13Z"/><path class="cls-2" d="M39.3,5.22H41s0,.09,0,.14v4.71a4.53,4.53,0,0,1-.24,1.5A2.13,2.13,0,0,1,39,13a4.69,4.69,0,0,1-1.79-.07c-.18-.05-.18-.05-.16-.23,0-.37.11-.75.16-1.12a.2.2,0,0,1,0-.09c.25,0,.5.08.76.1a1.83,1.83,0,0,0,.52,0,1,1,0,0,0,.74-.88,3.45,3.45,0,0,0,0-.64c0-1.54,0-3.07,0-4.61Z"/><path class="cls-1" d="M5.05,38h.22l.54,0a4.22,4.22,0,0,1,.87.19A5,5,0,0,1,9.19,40a5,5,0,0,1,1.06,2.92.34.34,0,0,0,0,.1v.18c0,.1,0,.2,0,.3a4.94,4.94,0,0,1-.12.77A4.87,4.87,0,0,1,9.06,46.4a5.06,5.06,0,0,1-3.62,1.83,4.39,4.39,0,0,1-.81,0,5.36,5.36,0,0,1-.89-.16,5.15,5.15,0,0,1-2.82-2A5,5,0,0,1,0,43.43a4.72,4.72,0,0,1,0-.92,4.29,4.29,0,0,1,.2-.93,5,5,0,0,1,2.1-2.76A5,5,0,0,1,4.93,38ZM2.3,40.31c0,.1,0,.2,0,.3s0,.35.05.52,0,.33,0,.5,0,.33,0,.5,0,.34,0,.51,0,.33,0,.5,0,.34,0,.51,0,.33.05.5,0,.33,0,.5,0,.48.07.72l.06.66s0,.06,0,.07l2.22.62h.08L6,46.49l1.42-.39s.06,0,.06-.06,0-.24,0-.35,0-.35,0-.52,0-.33,0-.49,0-.35,0-.53,0-.32,0-.48,0-.36,0-.53,0-.32,0-.48,0-.35,0-.52,0-.33,0-.49L7.9,41c0-.18,0-.36,0-.53s0-.13,0-.19Z"/><path class="cls-1" d="M3.58,44h.64s.06,0,.06.06,0,.33,0,.49,0,.05,0,.06l.71.19h.08l.7-.19s0,0,.06-.07l0-.38,0-.41v0s0-.06,0-.06H3.61s-.06,0-.07,0c0-.21,0-.42,0-.62s0-.33,0-.49,0-.34-.05-.51,0-.3,0-.45H6.89a1.64,1.64,0,0,1,0,.22l0,.39c0,.08,0,.08-.08.08H4.2c-.08,0-.08,0-.07.08s0,.32,0,.48a.71.71,0,0,1,0,.14l0,0H6.76a2,2,0,0,1,0,.25l0,.4c0,.17,0,.35,0,.52s0,.32,0,.48,0,.32,0,.48,0,0-.05,0l-.6.17-.75.21H5.08l-1.35-.37s0,0,0-.08l-.06-.61C3.61,44.27,3.59,44.12,3.58,44Z"/><circle class="cls-1" cx="5.13" cy="43.2" r="4.27"/><path class="cls-2" d="M5.33,39.45h.18c.19,0,.39,0,.58.08a1,1,0,0,1,.7.54.77.77,0,0,1,.08.34c0,.56,0,1.11,0,1.67a.84.84,0,0,1-.43.77A.9.9,0,0,1,6,43H4.29a1.09,1.09,0,0,0-.94.49,1.07,1.07,0,0,0-.19.6v.79H2.49a.78.78,0,0,1-.62-.35A1.54,1.54,0,0,1,1.63,44a3.2,3.2,0,0,1-.11-1,2.66,2.66,0,0,1,.19-1,1,1,0,0,1,.94-.66H5.12V41.1H3.44c-.06,0-.06,0-.06-.07v-.65a1.12,1.12,0,0,1,0-.32.62.62,0,0,1,.4-.42,2.24,2.24,0,0,1,.57-.13c.18,0,.36,0,.54-.06h.4Zm-1.19,1.2a.33.33,0,0,0,.33-.33A.33.33,0,0,0,4.14,40a.33.33,0,0,0,0,.66Z"/><path class="cls-2" d="M7.08,41.32h.64a.77.77,0,0,1,.49.15,1,1,0,0,1,.3.41,3.66,3.66,0,0,1,.17.65,2.72,2.72,0,0,1,.06.75,2.58,2.58,0,0,1-.38,1.27.68.68,0,0,1-.56.31H5.13v.21H6.86v.7a.69.69,0,0,1-.17.46,1.2,1.2,0,0,1-.46.32,3.19,3.19,0,0,1-.85.2A2.77,2.77,0,0,1,4,46.55a1.4,1.4,0,0,1-.44-.29.69.69,0,0,1-.2-.51V44.1a.91.91,0,0,1,.1-.43.88.88,0,0,1,.67-.46,4.34,4.34,0,0,1,.51,0H6a1.13,1.13,0,0,0,1.09-.93,1.09,1.09,0,0,0,0-.18v-.77Zm-1.3,4.54a.33.33,0,0,0,.32.34.34.34,0,0,0,.33-.34.32.32,0,0,0-.32-.33A.33.33,0,0,0,5.78,45.86Z"/><path class="cls-1" d="M44.66,54.06H45l.79.07a5.47,5.47,0,0,1,1.26.28,7.44,7.44,0,0,1,5.17,6.8.77.77,0,0,0,0,.15v.26c0,.15,0,.29,0,.43A8.41,8.41,0,0,1,52,63.18a7.17,7.17,0,0,1-1.55,3.09,7.31,7.31,0,0,1-5.25,2.65,6.53,6.53,0,0,1-1.17,0,7,7,0,0,1-1.29-.24,7.42,7.42,0,0,1-5.37-8,6.91,6.91,0,0,1,.29-1.35,7.32,7.32,0,0,1,3-4,7.21,7.21,0,0,1,3.77-1.19Zm-4,3.37,0,.44c0,.25,0,.51.07.76l.06.71c0,.25.05.49.07.74s0,.49.07.73l.06.74c0,.24,0,.48.07.73l.06.72c0,.25,0,.49.07.73l.09,1.05.09,1a.1.1,0,0,0,.08.11l3.22.89h.11L46,66.41l2.06-.57s.08,0,.08-.1,0-.34,0-.5,0-.51.07-.76,0-.47.07-.71l.06-.77c0-.23,0-.46.07-.7s0-.51.07-.76l.06-.7c0-.25,0-.5.07-.75l.06-.72c0-.3,0-.59.08-.89s.05-.52.07-.78c0-.09,0-.18,0-.27Z"/><path class="cls-1" d="M42.53,62.74h.93c.06,0,.09,0,.09.08,0,.24.05.47.07.71a.07.07,0,0,0,.06.08l1,.28h.1l1-.28a.08.08,0,0,0,.08-.09L46,63l0-.6v0c0-.06,0-.08-.08-.08H42.57c-.06,0-.09,0-.09-.08,0-.3,0-.6-.08-.9l-.06-.7c0-.25-.05-.5-.07-.75l-.06-.65h5.12c0,.11,0,.21,0,.32s0,.38-.05.57,0,.11-.12.11H43.42c-.11,0-.11,0-.1.12s0,.46.07.7a1.36,1.36,0,0,0,0,.2s0,0,.05,0,0,0,.07,0h3.62l0,.37c0,.19,0,.38,0,.58s0,.5-.07.75l-.06.7c0,.23,0,.46-.07.7,0,0,0,0-.07.06l-.87.24-1.09.3h-.13l-2-.54c-.06,0-.08,0-.08-.1,0-.3-.06-.6-.08-.9S42.55,63,42.53,62.74Z"/><circle class="cls-1" cx="44.77" cy="61.63" r="6.19"/><path class="cls-2" d="M40.87,57.55h7.81c0,.09,0,.17,0,.26l-.06.73c0,.29-.06.57-.08.85l-.06.68c0,.24-.05.48-.07.72l-.06.66-.06.73-.06.67c0,.24,0,.48-.07.72s0,.46,0,.68S48,64.73,48,65s0,.32,0,.48,0,.07-.08.09l-2,.54-1.11.31h-.11l-3.06-.84s-.08,0-.08-.1c0-.3,0-.6-.08-.91l-.09-1c0-.23,0-.46-.06-.69s-.05-.47-.07-.7l-.06-.69-.06-.7-.06-.69c0-.24-.05-.47-.07-.7L41,58.69,40.91,58C40.9,57.83,40.89,57.69,40.87,57.55Zm1.78,5c0,.22,0,.42.05.63s.06.56.08.85a.09.09,0,0,0,.07.1c.62.16,1.24.34,1.86.51h.13l1-.29.83-.23s.06,0,.06-.06c0-.22,0-.44.06-.66l.06-.66c0-.24,0-.48.07-.72s0-.37,0-.55l0-.35H43.59s0,0-.06,0-.05,0-.05,0,0-.13,0-.19l-.06-.67c0-.11,0-.11.1-.11H47c.1,0,.1,0,.11-.1s0-.36,0-.54,0-.21,0-.31H42.34l.06.62.06.71.06.67c0,.29.06.57.08.85,0,.07,0,.08.08.08h3.23c.06,0,.09,0,.07.08v0l0,.56c0,.18,0,.36,0,.54s0,.07-.08.08l-1,.26h-.1l-1-.27a.07.07,0,0,1-.06-.07c0-.23,0-.45-.06-.68,0-.07,0-.08-.09-.08h-.88Z"/><path class="cls-1" d="M42.65,62.59h.88c.06,0,.08,0,.09.08,0,.23,0,.45.06.68a.07.07,0,0,0,.06.07l1,.27h.1l1-.26c.05,0,.08,0,.08-.08s0-.36,0-.54l0-.56v0c0-.07,0-.08-.07-.08H42.68c-.06,0-.08,0-.08-.08,0-.28-.05-.56-.08-.85l-.06-.67-.06-.71-.06-.62h4.87c0,.1,0,.21,0,.31s0,.36,0,.54,0,.1-.11.1H43.5c-.12,0-.11,0-.1.11l.06.67c0,.06,0,.13,0,.19s0,0,.05,0,0,0,.06,0H47l0,.35c0,.18,0,.37,0,.55s-.05.48-.07.72l-.06.66c0,.22,0,.44-.06.66,0,0,0,.05-.06.06l-.83.23-1,.29h-.13c-.62-.17-1.24-.35-1.86-.51a.09.09,0,0,1-.07-.1c0-.29-.05-.57-.08-.85S42.67,62.81,42.65,62.59Z"/><path class="cls-1" d="M89.82,44.16,88,38.69h-7.8l-1.81,5.47h-3.9L82,23H86.3l7.51,21.19ZM84.07,26.72l-3,9h6l-3-9Z"/><path class="cls-1" d="M96.7,25h3.66V28.6h2.93v2.82h-2.93v8.09a1.62,1.62,0,0,0,1.87,1.86,6,6,0,0,0,1-.07v2.79a9.1,9.1,0,0,1-1.9.15,5.39,5.39,0,0,1-3.6-1A4.2,4.2,0,0,1,96.7,40v-8.6H94.47V28.6H96.7Z"/><path class="cls-1" d="M118.76,42.3a8,8,0,0,1-11,0,8.27,8.27,0,0,1-2-5.92,8.3,8.3,0,0,1,2.05-5.93,8,8,0,0,1,11,0,8.3,8.3,0,0,1,2,5.93A8.27,8.27,0,0,1,118.76,42.3Zm-8.28-2.09a3.53,3.53,0,0,0,5.58,0,6.3,6.3,0,0,0,1-3.83,6.32,6.32,0,0,0-1-3.83,3.52,3.52,0,0,0-5.57,0,6.25,6.25,0,0,0-1,3.83A6.23,6.23,0,0,0,110.48,40.21Z"/><path class="cls-1" d="M124.05,44.16V28.6h3.51v2.7h.07a4.56,4.56,0,0,1,1.69-2.19,4.74,4.74,0,0,1,2.75-.81,4.69,4.69,0,0,1,2.78.82,4.07,4.07,0,0,1,1.56,2.31h.09a4.63,4.63,0,0,1,1.86-2.28,5.39,5.39,0,0,1,3-.85A4.9,4.9,0,0,1,145,29.73a5.14,5.14,0,0,1,1.39,3.76V44.16h-3.66V34.38a3.11,3.11,0,0,0-.72-2.21,2.71,2.71,0,0,0-2.07-.78,2.78,2.78,0,0,0-2.14.88,3.18,3.18,0,0,0-.82,2.27v9.62h-3.56v-10a2.79,2.79,0,0,0-.74-2,2.71,2.71,0,0,0-2-.75,2.8,2.8,0,0,0-2.16.91,3.37,3.37,0,0,0-.83,2.33v9.53Z"/><path class="cls-1" d="M153.61,26a2,2,0,0,1-1.45.58,2,2,0,0,1-1.44-.58,2,2,0,0,1,0-2.82,2,2,0,0,1,1.44-.58,2,2,0,0,1,1.45.58,2,2,0,0,1,0,2.82Zm-3.27,18.18V28.6H154V44.16Z"/><path class="cls-1" d="M171.68,34.15h-3.45A3.67,3.67,0,0,0,167.12,32a3.56,3.56,0,0,0-5.06.57,6.2,6.2,0,0,0-1,3.77,6.18,6.18,0,0,0,1,3.78,3.32,3.32,0,0,0,2.79,1.36,3.44,3.44,0,0,0,2.27-.74,3.51,3.51,0,0,0,1.13-2.08h3.45a5.91,5.91,0,0,1-2.1,4.19,8,8,0,0,1-10.25-.59,8.31,8.31,0,0,1-2-5.92,8.37,8.37,0,0,1,2-5.91,7.84,7.84,0,0,1,10.28-.53A6.05,6.05,0,0,1,171.68,34.15Z"/><path class="cls-1" d="M182.06,23h8.24a7,7,0,0,1,5.15,2,6.92,6.92,0,0,1,2,5.14,6.79,6.79,0,0,1-2,5.12,7.27,7.27,0,0,1-5.26,2h-4.29v7h-3.79Zm3.79,3.1v8h3.44a4.49,4.49,0,0,0,3.17-1.05,3.9,3.9,0,0,0,1.13-3,3.84,3.84,0,0,0-1.13-3,4.47,4.47,0,0,0-3.16-1Z"/><path class="cls-1" d="M200.73,44.16V28.6h3.51v2.71h.07a4.12,4.12,0,0,1,1.38-2.2,3.64,3.64,0,0,1,2.35-.78,5.26,5.26,0,0,1,1.15.15v3.3a4.57,4.57,0,0,0-1.49-.2,3.15,3.15,0,0,0-2.43.94,3.61,3.61,0,0,0-.89,2.58v9.06Z"/><path class="cls-1" d="M223.76,42.3a8,8,0,0,1-11,0,8.27,8.27,0,0,1-2-5.92,8.3,8.3,0,0,1,2-5.93,8,8,0,0,1,11,0,8.3,8.3,0,0,1,2.05,5.93A8.27,8.27,0,0,1,223.76,42.3Zm-8.28-2.09a3.53,3.53,0,0,0,5.58,0,6.3,6.3,0,0,0,1-3.83,6.32,6.32,0,0,0-1-3.83,3.52,3.52,0,0,0-5.57,0,6.18,6.18,0,0,0-1,3.83A6.23,6.23,0,0,0,215.48,40.21Z"/><path class="cls-1" d="M235.91,50a8.23,8.23,0,0,1-4.78-1.31,4.79,4.79,0,0,1-2.2-3.38h3.63a2.63,2.63,0,0,0,1.23,1.44,4.33,4.33,0,0,0,2.24.55,3.94,3.94,0,0,0,2.75-.9,3.11,3.11,0,0,0,1-2.42V41.39h-.09a4.67,4.67,0,0,1-1.91,2,5.85,5.85,0,0,1-3,.76,5.73,5.73,0,0,1-4.66-2.13,8.75,8.75,0,0,1-1.74-5.73,9,9,0,0,1,1.74-5.84,5.79,5.79,0,0,1,4.73-2.15,5.49,5.49,0,0,1,2.94.79,5.09,5.09,0,0,1,2,2.15h.06V28.6h3.59V43.91a5.45,5.45,0,0,1-2.06,4.46A8.41,8.41,0,0,1,235.91,50Zm0-8.76a3.38,3.38,0,0,0,2.81-1.33,5.73,5.73,0,0,0,1-3.6,5.81,5.81,0,0,0-1.05-3.64,3.37,3.37,0,0,0-2.8-1.36,3.27,3.27,0,0,0-2.75,1.35,5.92,5.92,0,0,0-1,3.65,5.74,5.74,0,0,0,1,3.61A3.3,3.3,0,0,0,235.92,41.27Z"/><path class="cls-1" d="M247.31,44.16V28.6h3.51v2.71h.07a4.17,4.17,0,0,1,1.37-2.2,3.67,3.67,0,0,1,2.36-.78,5.34,5.34,0,0,1,1.15.15v3.3a4.57,4.57,0,0,0-1.49-.2,3.15,3.15,0,0,0-2.43.94A3.61,3.61,0,0,0,251,35.1v9.06Z"/><path class="cls-1" d="M262.79,44.41a5.37,5.37,0,0,1-3.74-1.31,4.35,4.35,0,0,1-1.46-3.39,3.91,3.91,0,0,1,1.54-3.27,7.79,7.79,0,0,1,4.38-1.38l4.11-.24V33.71a2.4,2.4,0,0,0-.77-1.9,3.14,3.14,0,0,0-2.14-.67,3.53,3.53,0,0,0-2.08.57,2.3,2.3,0,0,0-1,1.56h-3.4a4.72,4.72,0,0,1,1.91-3.61,7.45,7.45,0,0,1,4.7-1.39,7.13,7.13,0,0,1,4.63,1.41,4.6,4.6,0,0,1,1.74,3.76V44.16h-3.52V41.68h-.07a4.85,4.85,0,0,1-2,2A5.82,5.82,0,0,1,262.79,44.41Zm1.1-2.76a3.91,3.91,0,0,0,2.65-.93,3,3,0,0,0,1.08-2.33V37.2l-3.6.22a3.63,3.63,0,0,0-2,.66,1.77,1.77,0,0,0-.73,1.49,1.83,1.83,0,0,0,.73,1.52A3.05,3.05,0,0,0,263.89,41.65Z"/><path class="cls-1" d="M275.07,44.16V28.6h3.51v2.7h.08a4.48,4.48,0,0,1,1.68-2.19,4.74,4.74,0,0,1,2.75-.81,4.67,4.67,0,0,1,2.78.82,4.13,4.13,0,0,1,1.57,2.31h.08a4.74,4.74,0,0,1,1.86-2.28,5.39,5.39,0,0,1,3-.85,4.9,4.9,0,0,1,3.69,1.43,5.14,5.14,0,0,1,1.39,3.76V44.16h-3.66V34.38a3.11,3.11,0,0,0-.72-2.21,2.71,2.71,0,0,0-2.07-.78,2.78,2.78,0,0,0-2.14.88,3.18,3.18,0,0,0-.82,2.27v9.62h-3.56v-10a2.79,2.79,0,0,0-.74-2,2.69,2.69,0,0,0-2-.75,2.76,2.76,0,0,0-2.15.91,3.33,3.33,0,0,0-.84,2.33v9.53Z"/><path class="cls-1" d="M301.27,44.16V28.6h3.51v2.7h.08a4.48,4.48,0,0,1,1.68-2.19,4.74,4.74,0,0,1,2.75-.81,4.67,4.67,0,0,1,2.78.82,4.13,4.13,0,0,1,1.57,2.31h.08a4.74,4.74,0,0,1,1.86-2.28,5.39,5.39,0,0,1,3-.85,4.9,4.9,0,0,1,3.69,1.43,5.14,5.14,0,0,1,1.39,3.76V44.16H320V34.38a3.11,3.11,0,0,0-.72-2.21,2.71,2.71,0,0,0-2.07-.78,2.78,2.78,0,0,0-2.14.88,3.18,3.18,0,0,0-.82,2.27v9.62h-3.56v-10a2.79,2.79,0,0,0-.74-2,2.69,2.69,0,0,0-2-.75,2.76,2.76,0,0,0-2.15.91,3.33,3.33,0,0,0-.84,2.33v9.53Z"/><path class="cls-1" d="M337.78,39.51h3.42A5.32,5.32,0,0,1,339,43.1a7.75,7.75,0,0,1-4.64,1.37,7.13,7.13,0,0,1-5.49-2.15,8.27,8.27,0,0,1-2-5.88,8.54,8.54,0,0,1,2-5.93,7.51,7.51,0,0,1,10.59-.11,8.08,8.08,0,0,1,1.94,5.67v1.19H330.47v.22a4.29,4.29,0,0,0,1.06,3,3.74,3.74,0,0,0,2.86,1.14,4,4,0,0,0,2.18-.58A2.74,2.74,0,0,0,337.78,39.51Zm-3.6-8.4a3.4,3.4,0,0,0-2.54,1,4.17,4.17,0,0,0-1.14,2.69h7.27a4,4,0,0,0-1-2.7A3.34,3.34,0,0,0,334.18,31.11Z"/><path class="cls-1" d="M344.6,44.16V28.6h3.51v2.71h.07a4.18,4.18,0,0,1,1.38-2.2,3.64,3.64,0,0,1,2.35-.78,5.26,5.26,0,0,1,1.15.15v3.3a4.51,4.51,0,0,0-1.48-.2,3.17,3.17,0,0,0-2.44.94,3.61,3.61,0,0,0-.88,2.58v9.06Z"/><path class="cls-1" d="M355.56,33.06a4.15,4.15,0,0,1,1.73-3.46,7.36,7.36,0,0,1,4.57-1.33,7,7,0,0,1,4.44,1.35,4.45,4.45,0,0,1,1.79,3.5h-3.41a2.13,2.13,0,0,0-.85-1.59,3.91,3.91,0,0,0-4-.05,1.62,1.62,0,0,0-.73,1.38c0,.86.74,1.47,2.23,1.83l2.77.62a7.08,7.08,0,0,1,3.34,1.52,3.68,3.68,0,0,1,1,2.72,4.19,4.19,0,0,1-1.85,3.56,7.87,7.87,0,0,1-4.8,1.36,7.58,7.58,0,0,1-4.68-1.33,4.79,4.79,0,0,1-2-3.56h3.6a2.38,2.38,0,0,0,1,1.65,3.74,3.74,0,0,0,2.19.57,3.78,3.78,0,0,0,2.11-.51,1.57,1.57,0,0,0,.77-1.37,1.34,1.34,0,0,0-.48-1.08,4.17,4.17,0,0,0-1.6-.7l-2.84-.66C357,36.81,355.56,35.33,355.56,33.06Z"/></g></g></svg>