<svg xmlns="http://www.w3.org/2000/svg" viewBox="0 0 263.46 87.04"><defs><style>.cls-1{fill:#25282a;}</style></defs><g id="Layer_2" data-name="Layer 2"><g id="Layer_1-2" data-name="Layer 1"><g id="RamgarhCart"><path id="Path_3" data-name="Path 3" class="cls-1" d="M34.22.18c-5.76.11-6.07.17-6.65,1.29a2.63,2.63,0,0,0,.93,3.59,2.44,2.44,0,0,0,.28.14c.77.32,1.54.34,6.63.21l5.76-.15.32.52c.26.43,20.56,64.22,21.24,66.79l.22.82,20.61-.15c37.91-.32,46.88-.45,47.1-.67S134.73,61,139.45,47c5.93-17.44,8.61-25.62,8.61-26.24a1.91,1.91,0,0,0-.73-1.63,1.93,1.93,0,0,0-1.83-.73c-2.14,0-1.48-1.56-10,23.61-4.18,12.33-7.85,23.12-8.15,24l-.55,1.57h-1.44c-.77,0-14.18.15-29.8.34s-28.43.32-28.49.26-5-15.54-15.9-50C48.15,8.52,45.53.54,45.34.32,45-.08,45.25-.08,34.22.18Z"/><path id="Path_4" data-name="Path 4" class="cls-1" d="M98.69,11.58c-18.11.24-35.46.48-38.55.55l-5.62.18-.63.6a2.62,2.62,0,0,0,0,3.7,2.33,2.33,0,0,0,.46.37c.55.41.88.43,22.42.17,67-.77,69.26-.82,70-1.18a2.64,2.64,0,0,0,.91-3.62,2.56,2.56,0,0,0-.89-.9C146,11,143.15,11,98.69,11.58Z"/><path id="Path_5" data-name="Path 5" class="cls-1" d="M163.9,20.54a2.15,2.15,0,0,0-.11,3l.51.6,3.52.11c4,.13,4.64.34,6,1.87l.73.82-5.11.11-5.11.1-.51.6a2.21,2.21,0,0,0,0,2.88l.51.6,5.13.11,5.11.1-1,1c-1.35,1.4-2.47,1.7-6.24,1.7h-2.94l-.55.66a2.52,2.52,0,0,0-.43,2.41c.19.54,12.32,11.82,13,12.12A2.21,2.21,0,0,0,179.23,48a2.25,2.25,0,0,0,.06-1.31,36.82,36.82,0,0,0-4.18-4.38l-4-3.88,1.1-.26A9.56,9.56,0,0,0,179,31.66c.11-.3.41-.36,1.87-.36,2,0,2.68-.3,3-1.51a1.72,1.72,0,0,0-.13-1.56c-.45-1-.69-1.08-2.85-1.2l-1.78-.13-.55-1.29c-.28-.71-.52-1.31-.52-1.35s1,0,2.28,0a11.17,11.17,0,0,0,2.7-.24,2.63,2.63,0,0,0,.92-2.36,2.65,2.65,0,0,0-.79-1.16l-.65-.55h-18Z"/><path id="Path_6" data-name="Path 6" class="cls-1" d="M185.59,22v2h3V42.45h4.94V24h6.65v6.43h-.87c-1.72,0-2.49,1.85-1.59,3.78a8.19,8.19,0,0,0,3.09,3.17,3,3,0,0,0,2.21.5c1.37-.13,1.95-.73,2.17-2.28l.15-1.1h6.41v7.94h4.94V24h6.65v5.15l-.9.13a1.91,1.91,0,0,0-1.88,2.27A5.73,5.73,0,0,0,223,35.81a4,4,0,0,0,3.86,1c1.37-.47,1.42-.64,1.42-7.13V24h5.15V42.43h5.15V24H252.3v2.15h-.79A11.13,11.13,0,0,0,244.42,29a6.18,6.18,0,0,0-1.86,5,6.23,6.23,0,0,0,.6,3.26,8.86,8.86,0,0,0,3.93,4c4.27,1.89,10.4,1.51,13.13-.82A4.47,4.47,0,0,0,262,36.52,4.09,4.09,0,0,0,260.64,33a5.88,5.88,0,0,0-3.92-1.5c-4.12-.32-6.78,1.65-6.78,5a3.61,3.61,0,0,1-.13,1.35c-.38,0-1.44-1-1.8-1.71a4.8,4.8,0,0,1-.13-3.61c.9-1.73,2.2-2.23,6.09-2.36l3-.1V24h6.44v-4H185.59Zm26.17,5.25v3.22h-6.44V24h6.44ZM257,35.58c1.07,1.07.15,2.47-1.87,2.85-.77.16-.92-.06-.92-1.37a1.7,1.7,0,0,1,1.5-1.87,1.68,1.68,0,0,1,1.29.39Z"/><path id="Path_7" data-name="Path 7" class="cls-1" d="M95.58,20.8c-15.09.19-30.23.38-33.62.38-5.51,0-6.18.07-6.18.37,0,.62,13.13,42.89,13.43,43.19s3.07.27,20.73.06c11.25-.15,23.54-.26,27.31-.26a39.6,39.6,0,0,0,7.38-.27c.55-.28,2.64-6.35,11.69-33.9l3.29-10-8.3,0C126.78,20.39,110.68,20.58,95.58,20.8ZM109.2,32.1a4.09,4.09,0,0,1,1,1.18,1.53,1.53,0,0,1,.11,1.7,2.75,2.75,0,0,1-3.5,1.68,2.79,2.79,0,0,1-1.57-1.41,1.91,1.91,0,0,1,.2-2.27,2.59,2.59,0,0,1,3.53-1l.27.16Zm-20,.65a3.66,3.66,0,0,1,1,1.22,1.63,1.63,0,0,1,.1,1.7,2.71,2.71,0,0,1-5.12,0A2.66,2.66,0,0,1,87,32.38a2.63,2.63,0,0,1,2.21.37Zm20.64,9.41a5.24,5.24,0,0,1,.39,3.67A12.05,12.05,0,0,1,101.07,55a16.05,16.05,0,0,1-6.43-.47,10.75,10.75,0,0,1-8.11-9.66c-.11-1.37-.09-1.57.34-2a1.7,1.7,0,0,1,2-.19,4.77,4.77,0,0,1,.71,1.89,8.25,8.25,0,0,0,7.91,7.47A8.27,8.27,0,0,0,107,45.22a3,3,0,0,0,.06-.42c.32-2,.39-2.29.77-2.68a1.74,1.74,0,0,1,2.06,0Z"/><path id="Path_8" data-name="Path 8" class="cls-1" d="M24.14,27.13c-.34,0-5.17.21-10.73.41S3,27.92,2.57,28A3.26,3.26,0,0,0,.08,31.88a3.22,3.22,0,0,0,1.31,2c.89.55,1.76.55,13.69.11,15.1-.55,16.14-.62,16.78-1a3.62,3.62,0,0,0,1-4.55c-.71-1.16-1.53-1.37-5-1.33C26.18,27,24.5,27.1,24.14,27.13Z"/><path id="Path_9" data-name="Path 9" class="cls-1" d="M33.69,41.39c-2.42.11-8.09.32-12.6.5-9,.34-9.11.36-9.95,1.69a4,4,0,0,0,.24,3.93c1.15,1.24.82,1.22,14.22.73,15.58-.55,16.5-.62,17.23-1.31a3.06,3.06,0,0,0,1.11-2.81,3,3,0,0,0-1.69-2.57C41.43,41.11,40.9,41.11,33.69,41.39Z"/><path id="Path_10" data-name="Path 10" class="cls-1" d="M251,44.93a2.78,2.78,0,0,0,2.66,4.78A2.45,2.45,0,0,0,255.42,47a1.9,1.9,0,0,0-.79-1.92,2.16,2.16,0,0,0-1.87-.73A2.31,2.31,0,0,0,251,44.93Z"/><path id="Path_11" data-name="Path 11" class="cls-1" d="M184.28,55.49a7.54,7.54,0,0,0,1.33,14.61,8.46,8.46,0,0,0,6.91-1.87l.6-.62L192,66.51l-1.14-1.1-.55.5a4.87,4.87,0,0,1-5.32.75,4.64,4.64,0,0,1-1.7-6.34,5,5,0,0,1,.78-1,4.59,4.59,0,0,1,6.14-.06l.66.51,1.18-1,1.16-1-.75-.71a7.32,7.32,0,0,0-5-1.87A8.32,8.32,0,0,0,184.28,55.49Z"/><path id="Path_12" data-name="Path 12" class="cls-1" d="M36.9,55.77c-6.07.24-11.45.47-12,.55a3.21,3.21,0,0,0-1.76,5.49l.83.82h2.52c1.41,0,8-.19,14.57-.45,13.72-.52,13.28-.45,14.09-2.27a3.08,3.08,0,0,0-1.24-4.15C53,55.27,49.82,55.3,36.9,55.77Z"/><path id="Path_13" data-name="Path 13" class="cls-1" d="M203.86,60.18c-1.18,2.71-2.64,6-3.23,7.32l-1.08,2.43,1.85-.07,1.84-.06.6-1.4.58-1.39,3.33-.06,3.32,0,.6,1.5.58,1.51H216L215,67.48c-.6-1.31-2.06-4.59-3.26-7.29l-2.17-4.87H206Zm6,3.87a15.45,15.45,0,0,1-2,.06,7,7,0,0,1-2-.15c0-.09.45-1.24,1-2.58l1-2.4,1,2.49c.57,1.38,1,2.54,1,2.58Z"/><path id="Path_14" data-name="Path 14" class="cls-1" d="M224,62.59v7.32h3.43V66.05H229l1.54,0L231.82,68l1.29,1.92H235a6.84,6.84,0,0,0,1.86-.13,26.46,26.46,0,0,0-1.52-2.27c-1.29-1.83-1.48-2.2-1.2-2.36a4.82,4.82,0,0,0,2.51-4.49,4.76,4.76,0,0,0-3.11-4.74c-1-.45-1.44-.49-5.3-.55l-4.25-.1Zm8.07-3.86a2.33,2.33,0,0,1,.94,2.73c-.41,1.22-1.24,1.58-3.58,1.58h-2V58.32h2A4.72,4.72,0,0,1,232.06,58.73Z"/><path id="Path_15" data-name="Path 15" class="cls-1" d="M243.94,56.82v1.5h4.72V69.9h3.44V58.32h4.72v-3H243.94Z"/><path id="Path_16" data-name="Path 16" class="cls-1" d="M120.86,75.06a5.33,5.33,0,0,0-3.8,2.79,5.89,5.89,0,0,0,.64,6.6,5.33,5.33,0,0,0,4,1.93,4.13,4.13,0,0,0,2.86-.61,5.64,5.64,0,0,0,2.69-7.52,5.58,5.58,0,0,0-2.59-2.64A6,6,0,0,0,120.86,75.06Zm2.74,4a2.06,2.06,0,0,1,.62,2.36A2.39,2.39,0,0,1,122,83a2.47,2.47,0,0,1-2.25-2.12,2.28,2.28,0,0,1,3.88-1.82Z"/><path id="Path_17" data-name="Path 17" class="cls-1" d="M69.49,75.76a6,6,0,0,0-3.73,3.3,8.19,8.19,0,0,0,0,4.5,5.77,5.77,0,0,0,7.06,3.2,5.7,5.7,0,0,0,3.69-7.17A4.79,4.79,0,0,0,76.3,79,5.78,5.78,0,0,0,69.49,75.76ZM72,79.22a2.5,2.5,0,0,1,1.4,2.29,2.55,2.55,0,0,1-2.13,2.13A2.45,2.45,0,0,1,69,82.2a2,2,0,0,1,.52-2.47A1.87,1.87,0,0,1,72,79.22Z"/></g></g></g></svg>