<svg xmlns="http://www.w3.org/2000/svg" xmlns:xlink="http://www.w3.org/1999/xlink" viewBox="0 0 263.24 79.98"><defs><style>.cls-1{fill:url(#linear-gradient);}.cls-2{fill:#1f2020;}</style><linearGradient id="linear-gradient" y1="39.99" x2="74.35" y2="39.99" gradientUnits="userSpaceOnUse"><stop offset="0" stop-color="#ff9fe1"/><stop offset="0.48" stop-color="#9d44fd"/><stop offset="1" stop-color="#8727ff"/></linearGradient></defs><g id="Layer_2" data-name="Layer 2"><g id="Layer_1-2" data-name="Layer 1"><path class="cls-1" d="M0,80c.39-.78.73-1.46,1.08-2.14L9.88,61,26,30.24l6.29-12.08c.07-.14.15-.28.23-.41.43-.73.44-.73.88,0l11.4,18.37c.55.9.58.89,1.09,0L57.63,16.19q4.6-7.8,9.2-15.59c.47-.8.5-.81,1,0,2,3.59,3.86,7.26,6,10.78a3.14,3.14,0,0,1-.19,3.84c-6.36,10-12.64,20.05-19,30.08q-4.37,7-8.75,13.89c-.52.81-.55.81-1,0L32.71,38.89c-.69-1.17-.68-1.18-1.52-.06L15.12,60.2Q7.92,69.77.71,79.32A1.32,1.32,0,0,1,0,80Z"/><path class="cls-2" d="M94.76,46h5.92a5.16,5.16,0,0,0,2.41,3.78,9.29,9.29,0,0,0,5.28,1.43,8.59,8.59,0,0,0,5-1.37,4.16,4.16,0,0,0,2-3.51,3.67,3.67,0,0,0-1.43-3,11.84,11.84,0,0,0-4.63-1.91l-4.43-1a14.21,14.21,0,0,1-7-3.38,8.1,8.1,0,0,1-2.28-6,8.93,8.93,0,0,1,3.55-7.34,14.28,14.28,0,0,1,9.16-2.81,14,14,0,0,1,9.08,2.78,9.25,9.25,0,0,1,3.56,7.3h-5.82a5,5,0,0,0-2.06-3.75,7.88,7.88,0,0,0-4.81-1.36,7.73,7.73,0,0,0-4.67,1.3,4.06,4.06,0,0,0-1.79,3.43,3.32,3.32,0,0,0,1.39,2.77,12.34,12.34,0,0,0,4.53,1.82l3.93.9c3.46.79,6,1.94,7.53,3.46a8.08,8.08,0,0,1,2.34,6.08,9.29,9.29,0,0,1-3.63,7.71c-2.43,1.9-5.7,2.85-9.84,2.85q-5.92,0-9.5-2.73A9.38,9.38,0,0,1,94.76,46Z"/><path class="cls-2" d="M140.5,30.08a9.27,9.27,0,0,1,7.6,3.48q2.82,3.48,2.82,9.5t-2.8,9.47a9.88,9.88,0,0,1-12.28,2.26,7.83,7.83,0,0,1-3.1-3.35h-.12V63.87h-5.9V30.51h5.76v4.33h.11a8.32,8.32,0,0,1,3.15-3.49A9,9,0,0,1,140.5,30.08Zm-1.8,21.1A5.36,5.36,0,0,0,143.22,49a9.58,9.58,0,0,0,1.66-5.93,9.59,9.59,0,0,0-1.67-5.92,5.35,5.35,0,0,0-4.51-2.2,5.28,5.28,0,0,0-4.42,2.22,9.63,9.63,0,0,0-1.71,5.9,9.57,9.57,0,0,0,1.71,5.9A5.28,5.28,0,0,0,138.7,51.18Z"/><path class="cls-2" d="M172.54,48.1h5.51a8.6,8.6,0,0,1-3.62,5.79A12.45,12.45,0,0,1,167,56.1q-5.64,0-8.85-3.47t-3.22-9.48q0-6,3.2-9.56a11,11,0,0,1,8.63-3.6,10.88,10.88,0,0,1,8.45,3.42q3.14,3.42,3.13,9.15v1.92H160.75v.35a6.9,6.9,0,0,0,1.71,4.88,6,6,0,0,0,4.61,1.85,6.43,6.43,0,0,0,3.51-.94A4.4,4.4,0,0,0,172.54,48.1Zm-5.8-13.54a5.5,5.5,0,0,0-4.11,1.69,6.71,6.71,0,0,0-1.84,4.35h11.72a6.41,6.41,0,0,0-1.68-4.36A5.38,5.38,0,0,0,166.74,34.56Z"/><path class="cls-2" d="M199.91,48.1h5.51a8.56,8.56,0,0,1-3.62,5.79,12.43,12.43,0,0,1-7.48,2.21q-5.64,0-8.85-3.47t-3.22-9.48q0-6,3.21-9.56a12.15,12.15,0,0,1,17.08-.18q3.12,3.42,3.12,9.15v1.92H188.12v.35a6.9,6.9,0,0,0,1.71,4.88,6,6,0,0,0,4.61,1.85,6.43,6.43,0,0,0,3.51-.94A4.4,4.4,0,0,0,199.91,48.1Zm-5.8-13.54A5.5,5.5,0,0,0,190,36.25a6.66,6.66,0,0,0-1.83,4.35h11.71a6.41,6.41,0,0,0-1.68-4.36A5.36,5.36,0,0,0,194.11,34.56Z"/><path class="cls-2" d="M220,56a9.22,9.22,0,0,1-7.58-3.51Q209.62,49,209.62,43t2.83-9.44A9.22,9.22,0,0,1,220,30.08a8.77,8.77,0,0,1,4.7,1.26,7.88,7.88,0,0,1,3.07,3.38h.14V21.44h5.9V55.6h-5.78V51.32H228a8,8,0,0,1-3.14,3.42A9.15,9.15,0,0,1,220,56Zm1.78-21.07a5.36,5.36,0,0,0-4.5,2.19,9.62,9.62,0,0,0-1.65,5.93A9.61,9.61,0,0,0,217.3,49a5.7,5.7,0,0,0,9,0A9.48,9.48,0,0,0,228,43.06a9.49,9.49,0,0,0-1.69-5.91A5.32,5.32,0,0,0,221.81,34.94Z"/><path class="cls-2" d="M260,52.61a13,13,0,0,1-17.7,0Q239,49.12,239,43.06t3.31-9.56a12.87,12.87,0,0,1,17.67,0q3.3,3.53,3.3,9.56T260,52.61ZM246.6,49.24a5.7,5.7,0,0,0,9,0,10.14,10.14,0,0,0,1.66-6.18,10.14,10.14,0,0,0-1.66-6.17,5.68,5.68,0,0,0-9,0,10.08,10.08,0,0,0-1.67,6.17A10.14,10.14,0,0,0,246.6,49.24Z"/></g></g></svg>