<svg xmlns="http://www.w3.org/2000/svg" xmlns:xlink="http://www.w3.org/1999/xlink" viewBox="0 0 270.56 61.38"><defs><style>.cls-1{fill:none;stroke-miterlimit:10;stroke-width:2px;stroke:url(#linear-gradient);}.cls-2{fill:url(#linear-gradient-2);}.cls-3{fill:#25282a;}</style><linearGradient id="linear-gradient" y1="30.69" x2="61.38" y2="30.69" gradientUnits="userSpaceOnUse"><stop offset="0" stop-color="#a238ff"/><stop offset="1" stop-color="#3659e9"/></linearGradient><linearGradient id="linear-gradient-2" x1="5.24" y1="30.69" x2="56.14" y2="30.69" xlink:href="#linear-gradient"/></defs><g id="Layer_2" data-name="Layer 2"><g id="Layer_1-2" data-name="Layer 1"><circle class="cls-1" cx="30.69" cy="30.69" r="29.69"/><circle class="cls-2" cx="30.69" cy="30.69" r="25.45"/><path class="cls-3" d="M85,21.87V17.31h21.49v4.56h-8V43.48H93V21.87Z"/><path class="cls-3" d="M107.92,43.48V23.85h5.28v3.43h.21a5,5,0,0,1,1.8-2.77,4.71,4.71,0,0,1,2.91-.94c.27,0,.57,0,.88.05a5.28,5.28,0,0,1,.83.14v4.83a6.5,6.5,0,0,0-1.06-.2,9.4,9.4,0,0,0-1.24-.09,4.42,4.42,0,0,0-2.14.51,3.93,3.93,0,0,0-1.48,1.44,4.13,4.13,0,0,0-.54,2.12V43.48Z"/><path class="cls-3" d="M127.68,43.85a8.11,8.11,0,0,1-3.35-.66A5.34,5.34,0,0,1,122,41.24a5.87,5.87,0,0,1-.85-3.24,5.74,5.74,0,0,1,.6-2.75,4.87,4.87,0,0,1,1.64-1.79,8,8,0,0,1,2.36-1,18.51,18.51,0,0,1,2.78-.49c1.14-.12,2.06-.23,2.76-.34a3.71,3.71,0,0,0,1.52-.48,1.06,1.06,0,0,0,.47-.94v-.08a2.36,2.36,0,0,0-.76-1.88,3.18,3.18,0,0,0-2.15-.66,3.84,3.84,0,0,0-2.34.64,3,3,0,0,0-1.15,1.62l-5-.41a7,7,0,0,1,1.51-3.1,7.42,7.42,0,0,1,2.91-2,11.16,11.16,0,0,1,4.13-.71,12.45,12.45,0,0,1,3.14.39,8.1,8.1,0,0,1,2.67,1.19,5.73,5.73,0,0,1,1.85,2.06,6.28,6.28,0,0,1,.67,3V43.48h-5.16V40.76h-.15a5.49,5.49,0,0,1-1.27,1.61,5.63,5.63,0,0,1-1.9,1.09A7.76,7.76,0,0,1,127.68,43.85Zm1.56-3.76a4.51,4.51,0,0,0,2.12-.48,3.68,3.68,0,0,0,1.44-1.29,3.39,3.39,0,0,0,.53-1.86V34.38a2.76,2.76,0,0,1-.7.3,9,9,0,0,1-1,.24c-.36.08-.73.14-1.1.2l-1,.14a6.84,6.84,0,0,0-1.68.45,2.71,2.71,0,0,0-1.11.82,2.11,2.11,0,0,0-.4,1.29,1.94,1.94,0,0,0,.82,1.69A3.42,3.42,0,0,0,129.24,40.09Z"/><path class="cls-3" d="M151.83,43.86a10,10,0,0,1-5.18-1.28A8.6,8.6,0,0,1,143.33,39a11.55,11.55,0,0,1-1.16-5.27,11.49,11.49,0,0,1,1.17-5.3,8.67,8.67,0,0,1,3.33-3.56,9.83,9.83,0,0,1,5.14-1.29,10.28,10.28,0,0,1,4.5.94,7.5,7.5,0,0,1,3.05,2.62,7.7,7.7,0,0,1,1.24,4h-5.14a4,4,0,0,0-1.14-2.37,3.34,3.34,0,0,0-2.42-.9,3.69,3.69,0,0,0-2.21.68,4.49,4.49,0,0,0-1.46,2,8.44,8.44,0,0,0-.53,3.15,8.86,8.86,0,0,0,.52,3.2,4.44,4.44,0,0,0,1.47,2,3.63,3.63,0,0,0,2.21.69,3.59,3.59,0,0,0,1.68-.39,3.31,3.31,0,0,0,1.24-1.12,4.34,4.34,0,0,0,.64-1.77h5.14a8.1,8.1,0,0,1-1.22,4,7.42,7.42,0,0,1-3,2.66A10,10,0,0,1,151.83,43.86Z"/><path class="cls-3" d="M164.1,43.48V17.31h5.44V43.48ZM169,37.83l0-6.53h.79l6.28-7.45h6.25l-8.44,9.87h-1.29Zm7.34,5.65-5.78-8.55,3.63-3.85,8.52,12.4Z"/><path class="cls-3" d="M185.13,17.31H192l7.2,17.58h.31l7.21-17.58h6.82V43.48h-5.37v-17h-.21l-6.78,16.91h-3.65l-6.77-17h-.22v17.1h-5.37Z"/><path class="cls-3" d="M223.54,43.85a8.06,8.06,0,0,1-3.34-.66,5.28,5.28,0,0,1-2.32-1.95A5.79,5.79,0,0,1,217,38a5.74,5.74,0,0,1,.6-2.75,4.85,4.85,0,0,1,1.63-1.79,8,8,0,0,1,2.36-1A18.51,18.51,0,0,1,224.4,32c1.14-.12,2.06-.23,2.76-.34a3.61,3.61,0,0,0,1.52-.48,1,1,0,0,0,.47-.94v-.08a2.36,2.36,0,0,0-.76-1.88,3.16,3.16,0,0,0-2.15-.66,3.84,3.84,0,0,0-2.34.64,3,3,0,0,0-1.15,1.62l-5-.41a6.88,6.88,0,0,1,1.51-3.1,7.39,7.39,0,0,1,2.9-2,11.22,11.22,0,0,1,4.14-.71,12.37,12.37,0,0,1,3.13.39,8.1,8.1,0,0,1,2.67,1.19,5.73,5.73,0,0,1,1.85,2.06,6.28,6.28,0,0,1,.68,3V43.48h-5.16V40.76h-.16A5.29,5.29,0,0,1,228,42.37a5.68,5.68,0,0,1-1.91,1.09A7.72,7.72,0,0,1,223.54,43.85Zm1.56-3.76a4.51,4.51,0,0,0,2.12-.48,3.71,3.71,0,0,0,1.45-1.29,3.39,3.39,0,0,0,.52-1.86V34.38a2.83,2.83,0,0,1-.69.3q-.45.14-1,.24c-.37.08-.74.14-1.1.2l-1,.14a6.63,6.63,0,0,0-1.67.45,2.75,2.75,0,0,0-1.12.82,2.1,2.1,0,0,0-.39,1.29,2,2,0,0,0,.81,1.69A3.44,3.44,0,0,0,225.1,40.09Z"/><path class="cls-3" d="M249.27,23.85v4.09H237.45V23.85Zm-9.14-4.7h5.45v18.3a2.38,2.38,0,0,0,.23,1.17,1.25,1.25,0,0,0,.64.58,2.63,2.63,0,0,0,1,.16,3.91,3.91,0,0,0,.76-.07l.59-.11.86,4.06-1.15.3a10.62,10.62,0,0,1-1.81.21,8.23,8.23,0,0,1-3.44-.53,4.8,4.8,0,0,1-2.29-1.86,5.68,5.68,0,0,1-.81-3.2Z"/><path class="cls-3" d="M261.55,43.86a10.43,10.43,0,0,1-5.21-1.23,8.32,8.32,0,0,1-3.35-3.5,11.48,11.48,0,0,1-1.18-5.38A11.36,11.36,0,0,1,253,28.44a8.65,8.65,0,0,1,3.31-3.57,9.67,9.67,0,0,1,5-1.28,10.42,10.42,0,0,1,3.62.62,8.36,8.36,0,0,1,2.94,1.86,8.54,8.54,0,0,1,2,3.12,12.56,12.56,0,0,1,.7,4.37v1.5H254V31.68h11.45a4.19,4.19,0,0,0-.51-2.08,3.7,3.7,0,0,0-1.41-1.42,4.08,4.08,0,0,0-2.09-.52,4.16,4.16,0,0,0-2.19.57,4,4,0,0,0-1.49,1.52,4.31,4.31,0,0,0-.55,2.11v3.21a5.51,5.51,0,0,0,.54,2.52,4,4,0,0,0,1.54,1.63,4.63,4.63,0,0,0,2.37.58,5.16,5.16,0,0,0,1.66-.26,3.47,3.47,0,0,0,1.29-.76,3.32,3.32,0,0,0,.82-1.26l5,.34A6.87,6.87,0,0,1,268.88,41a7.76,7.76,0,0,1-3,2.09A11.41,11.41,0,0,1,261.55,43.86Z"/></g></g></svg>