<svg xmlns="http://www.w3.org/2000/svg" xmlns:xlink="http://www.w3.org/1999/xlink" viewBox="0 0 268.14 77.2"><defs><style>.cls-1{fill:url(#linear-gradient);}.cls-2{fill:#fff;}.cls-3{fill:#25282a;}</style><linearGradient id="linear-gradient" x1="34.47" x2="34.47" y2="77.2" gradientUnits="userSpaceOnUse"><stop offset="0" stop-color="#fb5971"/><stop offset="1" stop-color="#fa253d"/></linearGradient></defs><g id="Layer_2" data-name="Layer 2"><g id="Layer_1-2" data-name="Layer 1"><path class="cls-1" d="M0,38.39C0,28.33,0,18.28,0,8.23.1.9,5.05-2.08,11.37,1.53q26.58,15.2,53.05,30.6c6,3.51,6,9.41,0,12.91Q38,60.46,11.4,75.64C5.07,79.27.1,76.33,0,69,0,58.81,0,48.6,0,38.39Z"/><path class="cls-2" d="M15.14,38.53V28.26a3.37,3.37,0,0,1,.27-1.57,1.75,1.75,0,0,1,1.67-1.14,1.71,1.71,0,0,1,1.57,1.19,2.3,2.3,0,0,1,.21.93c0,.4,0,.79,0,1.19,0,.8.05,1.54.89,1.91a2.68,2.68,0,0,0,2.73-.21A1.28,1.28,0,0,0,23,29.38c0-2,0-4,0-6a4.74,4.74,0,0,1,.13-1.25A1.85,1.85,0,0,1,25,20.52a2,2,0,0,1,1.68,1.76,6.78,6.78,0,0,1,0,.78c0,4.08,0,8.16,0,12.24A1.5,1.5,0,0,0,28.36,37a6.61,6.61,0,0,0,.89,0c1.26-.07,1.74-.58,1.74-1.83,0-2.43,0-4.86,0-7.28a2.55,2.55,0,0,1,.38-1.48,1.64,1.64,0,0,1,2.92,0,3.63,3.63,0,0,1,.42,2c0,1.93-.06,3.86-.05,5.79,0,3.12.07,6.25.05,9.37,0,2,0,4-.08,6.07a1.9,1.9,0,0,1-2,2A2,2,0,0,1,31,49.52c0-2.31,0-4.62,0-6.93,0-1.42-.5-1.94-1.92-2a3.53,3.53,0,0,0-1.12.11,1.36,1.36,0,0,0-1.2,1.58q0,6,0,12a2.48,2.48,0,0,1-.46,1.63,1.62,1.62,0,0,1-2.82-.15,2.79,2.79,0,0,1-.35-1.55c0-3.86,0-7.72,0-11.58,0-2.11-.05-4.22-.09-6.32A1.28,1.28,0,0,0,22.08,35a3.32,3.32,0,0,0-1.71-.12c-1.15.22-1.51.67-1.51,1.84,0,4.14,0,8.28,0,12.42a2.89,2.89,0,0,1-.37,1.55,1.66,1.66,0,0,1-2.93,0,3.34,3.34,0,0,1-.42-1.83V38.53Z"/><path class="cls-2" d="M38.89,39.23c0-1.38,0-2.75,0-4.12a1.88,1.88,0,0,1,1.74-2,1.92,1.92,0,0,1,2.06,1.79,2.19,2.19,0,0,1,0,.36c0,2.66,0,5.33,0,8a2.09,2.09,0,0,1-.6,1.63,1.79,1.79,0,0,1-2,.39,1.77,1.77,0,0,1-1.18-1.71C38.88,42.09,38.89,40.66,38.89,39.23Z"/><path class="cls-2" d="M11,38.85c0,.76,0,1.51,0,2.27a1.92,1.92,0,0,1-1.83,2,1.87,1.87,0,0,1-2-1.83c-.06-1.62-.06-3.25,0-4.88a1.87,1.87,0,0,1,2-1.76A1.91,1.91,0,0,1,11,36.53C11,37.3,11,38.08,11,38.85Z"/><path class="cls-3" d="M82.84,25.1h4.49l3.49,13.14.5,2.42h.25l.66-2.42,3.24-10.12h4l3.27,10.12.62,2.38h.26l.47-2.38,3.26-13.14h4.5l-6,22.5h-4.09L98.23,36.76l-.65-2.48h-.26l-.66,2.48L93.14,47.6H89.06Z"/><path class="cls-3" d="M122.3,46h-.25a6.83,6.83,0,0,1-1.74,1.5,5,5,0,0,1-2.63.63,6.39,6.39,0,0,1-2.24-.39,5.7,5.7,0,0,1-1.84-1.08A5,5,0,0,1,112.37,45a5.18,5.18,0,0,1-.44-2.14,4.88,4.88,0,0,1,.47-2.15A5,5,0,0,1,113.72,39a6,6,0,0,1,2-1.05,8.3,8.3,0,0,1,2.5-.36,11.3,11.3,0,0,1,2.48.23,12,12,0,0,1,1.6.49v-.47a2.52,2.52,0,0,0-1-2,3.71,3.71,0,0,0-2.42-.8,4.54,4.54,0,0,0-3.62,1.79l-3-2A8.09,8.09,0,0,1,119,31.7a8,8,0,0,1,5.47,1.68,6.35,6.35,0,0,1,1.88,5V47.6h-4Zm0-4.62a8.09,8.09,0,0,0-1.49-.55,6.44,6.44,0,0,0-1.68-.21,3.54,3.54,0,0,0-2.28.65,2,2,0,0,0-.8,1.58,1.77,1.77,0,0,0,.77,1.51,2.88,2.88,0,0,0,1.77.57,3.78,3.78,0,0,0,2.69-1.09,3.33,3.33,0,0,0,.75-1.13A3.4,3.4,0,0,0,122.3,41.35Z"/><path class="cls-3" d="M127.67,32.2h4.68L136.19,42h.22l3.86-9.81h4.65l-6.63,15.4h-4Z"/><path class="cls-3" d="M160.91,43.89a8.65,8.65,0,0,1-2.87,3,8.06,8.06,0,0,1-4.42,1.16,8.47,8.47,0,0,1-3.25-.61,7.9,7.9,0,0,1-2.59-1.71,8,8,0,0,1-1.71-2.59,8.57,8.57,0,0,1-.61-3.29,8.41,8.41,0,0,1,.59-3.16,8.11,8.11,0,0,1,1.67-2.6,7.88,7.88,0,0,1,2.53-1.78,7.69,7.69,0,0,1,3.22-.66,8.59,8.59,0,0,1,3.3.61,6.83,6.83,0,0,1,2.42,1.7,7.37,7.37,0,0,1,1.47,2.56,9.78,9.78,0,0,1,.5,3.21v.37a2.26,2.26,0,0,0,0,.35,1.79,1.79,0,0,0,0,.34H149.51a4.12,4.12,0,0,0,.52,1.62,3.8,3.8,0,0,0,1,1.13,3.59,3.59,0,0,0,1.27.66,4.83,4.83,0,0,0,1.42.21,4,4,0,0,0,2.34-.65,4.69,4.69,0,0,0,1.46-1.61Zm-3.74-6a2.82,2.82,0,0,0-.26-.91,3.34,3.34,0,0,0-.69-.94,3.71,3.71,0,0,0-1.14-.72,4.1,4.1,0,0,0-1.61-.29,3.81,3.81,0,0,0-2.33.76,3.94,3.94,0,0,0-1.41,2.1Z"/><path class="cls-3" d="M170.06,48.1a8.88,8.88,0,0,1-2.69-.37,7.75,7.75,0,0,1-2-1,6.17,6.17,0,0,1-1.46-1.42A6.63,6.63,0,0,1,163,43.7l3.68-1.57a4,4,0,0,0,1.43,1.78,3.57,3.57,0,0,0,2,.58,3.41,3.41,0,0,0,1.79-.41,1.16,1.16,0,0,0,.66-1,1.21,1.21,0,0,0-.55-1,5.55,5.55,0,0,0-1.9-.71l-2.17-.47a7.91,7.91,0,0,1-1.49-.5,6.25,6.25,0,0,1-1.4-.88,4.51,4.51,0,0,1-1-1.29,3.69,3.69,0,0,1-.41-1.76,4,4,0,0,1,.49-2,4.54,4.54,0,0,1,1.33-1.5,6.6,6.6,0,0,1,2-.94,8.89,8.89,0,0,1,2.47-.33,8.59,8.59,0,0,1,3.92.87,5.33,5.33,0,0,1,2.55,2.75l-3.55,1.44a2.72,2.72,0,0,0-1.29-1.32,3.93,3.93,0,0,0-1.7-.41,3.18,3.18,0,0,0-1.54.36,1.06,1.06,0,0,0-.66.93,1,1,0,0,0,.55.85,6.16,6.16,0,0,0,1.5.56l2.35.57a6.87,6.87,0,0,1,3.51,1.81,4.27,4.27,0,0,1,.67,4.85,5.11,5.11,0,0,1-1.33,1.62,6.55,6.55,0,0,1-2.08,1.11A8.11,8.11,0,0,1,170.06,48.1Z"/><path class="cls-3" d="M186.55,25.1h4.18L197.61,37h.25l6.88-11.91H209V47.6h-4.21V36.51l.25-3.77h-.25L199,42.82h-2.54l-5.75-10.08h-.25l.25,3.77V47.6h-4.18Z"/><path class="cls-3" d="M223.31,45.59h-.25a5.38,5.38,0,0,1-1.95,1.84,5.71,5.71,0,0,1-2.8.67A5.23,5.23,0,0,1,214,46.31a7.43,7.43,0,0,1-1.43-4.77V32.2h4.12V41a3.56,3.56,0,0,0,.73,2.47,2.81,2.81,0,0,0,2.16.8,3,3,0,0,0,1.49-.36,3.52,3.52,0,0,0,1.1-1,4.53,4.53,0,0,0,.69-1.45,6.36,6.36,0,0,0,.24-1.77V32.2h4.11V47.6h-3.86Z"/><path class="cls-3" d="M236.63,48.1a8.88,8.88,0,0,1-2.69-.37,8.06,8.06,0,0,1-2-1,6.36,6.36,0,0,1-1.46-1.42,6.59,6.59,0,0,1-.91-1.62l3.67-1.57a4.05,4.05,0,0,0,1.43,1.78,3.6,3.6,0,0,0,2,.58,3.41,3.41,0,0,0,1.79-.41,1.16,1.16,0,0,0,.66-1,1.19,1.19,0,0,0-.55-1,5.55,5.55,0,0,0-1.9-.71l-2.17-.47a7.91,7.91,0,0,1-1.49-.5,6.25,6.25,0,0,1-1.4-.88,4.69,4.69,0,0,1-1-1.29,3.69,3.69,0,0,1-.41-1.76,4.1,4.1,0,0,1,.49-2A4.57,4.57,0,0,1,232,33a6.54,6.54,0,0,1,2-.94,8.94,8.94,0,0,1,2.47-.33,8.67,8.67,0,0,1,3.93.87,5.27,5.27,0,0,1,2.54,2.75l-3.55,1.44A2.67,2.67,0,0,0,238,35.44a3.89,3.89,0,0,0-1.69-.41,3.16,3.16,0,0,0-1.54.36,1.06,1.06,0,0,0-.66.93.94.94,0,0,0,.55.85,5.91,5.91,0,0,0,1.49.56l2.35.57a6.82,6.82,0,0,1,3.51,1.81A4.18,4.18,0,0,1,243.2,43a4.08,4.08,0,0,1-.48,1.92,5.11,5.11,0,0,1-1.33,1.62,6.61,6.61,0,0,1-2.07,1.11A8.21,8.21,0,0,1,236.63,48.1Z"/><path class="cls-3" d="M247.84,30.13a2.76,2.76,0,0,1-1-.2,2.71,2.71,0,0,1-.84-.57,2.62,2.62,0,0,1-.57-.83,2.54,2.54,0,0,1-.2-1,2.49,2.49,0,0,1,.2-1,2.55,2.55,0,0,1,.57-.84,2.53,2.53,0,0,1,.84-.56,2.66,2.66,0,0,1,2.91.56,2.55,2.55,0,0,1,.79,1.87,2.52,2.52,0,0,1-.79,1.87A2.6,2.6,0,0,1,247.84,30.13Zm-2,17.47V32.2h4.12V47.6Z"/><path class="cls-3" d="M268.14,43.67a8.64,8.64,0,0,1-2.81,3.19,7.78,7.78,0,0,1-4.51,1.24,8.52,8.52,0,0,1-3.28-.61A7.66,7.66,0,0,1,255,45.78a8.15,8.15,0,0,1-1.7-2.59,8.76,8.76,0,0,1-.61-3.29,8.89,8.89,0,0,1,.61-3.3,7.65,7.65,0,0,1,4.28-4.29,8.71,8.71,0,0,1,3.28-.61,7.83,7.83,0,0,1,4.49,1.23A7.13,7.13,0,0,1,268,36.1l-3.77,1.57a4.07,4.07,0,0,0-1.36-1.62,4.08,4.08,0,0,0-3.63-.23,3.86,3.86,0,0,0-1.27.88,4,4,0,0,0-.87,1.38,5.5,5.5,0,0,0,0,3.64A4,4,0,0,0,259.22,44a3.78,3.78,0,0,0,1.54.31,3.9,3.9,0,0,0,2.18-.58A4.1,4.1,0,0,0,264.37,42Z"/></g></g></svg>